<svg xmlns="http://www.w3.org/2000/svg" viewBox="0 0 243.55 202.89"><defs><style>.cls-1{fill:#1d674b;}.cls-2{fill:#1d4d3d;}.cls-3{fill:#a38d41;}.cls-4{fill:#358554;}.cls-5{fill:#1a0d09;}.cls-6{fill:#04392c;}</style></defs><title>Asset 3</title><g id="Layer_2" data-name="Layer 2"><g id="OBJECTS"><path class="cls-1" d="M179.65,32.79c-9.91,2.09-20.16,4.32-29.69,7.83a64.86,64.86,0,0,1,10.09,3.79c5.33,2.53,10.3,5.76,15.65,8.25s11.25,4.22,17.1,3.49c-5.73,2.09-12.11,1.61-18,0s-11.45-4.16-17.16-6.3a117.1,117.1,0,0,0-17.41-5A55.69,55.69,0,0,0,119.4,62.28a43.77,43.77,0,0,1,13.18,3c6.3,2.32,12.37,5.36,18.93,6.78a40.58,40.58,0,0,0,27.4-3.54,41.37,41.37,0,0,1-34.66,5.94c-8.09-2.29-15.39-7-23.64-8.65-1.11-.21-2.23-.35-3.35-.46-4.39,6.53-8.09,13.6-12.75,20A215.79,215.79,0,0,1,128.3,99.2a241.67,241.67,0,0,0-27.16-9.7c-9.27,10.65-22,17.77-34.73,23.9-4.85,2.33-9.75,4.57-14.6,6.9A145.15,145.15,0,0,1,66,128.69a116.47,116.47,0,0,0-17.88-6.58q-2.76,1.38-5.45,2.84c6.13,2.36,22.94,12.21,29,14.35-.84.41-1,.36-1.84.77-6-3-23-12.54-29.55-13.79-10.64,6.05-20.07,13.33-27.36,23.83a71.93,71.93,0,0,0-3.85,6.2l9.82.25L8.28,157.7A69.66,69.66,0,0,0,.09,193.81c.15,2.79,1.35,9.08,1.35,9.08.79-9.27,14.05-26.81,29.43-33.23a178,178,0,0,0,27.48-10.87c20.12-10,39.55-28.85,39.55-28.85s59.42-28.62,74.74-34.28,41.2-18.06,53.17-44.44A160.06,160.06,0,0,0,238.53,9C225,24.55,199.81,28.54,179.65,32.79Z"/><path class="cls-2" d="M176.06,78.66q7.56-6,14.8-12.33,9.28-8.14,18-16.91,4.37-4.37,8.57-8.89,2.1-2.27,4.17-4.55l2.14-2.4c.38-.43,1.71-1.5,1.79-2q-1.16,8-2.3,16L221,38.15l-2.67,5.68-4.26,9.1L207.2,67.61l1.2-11.8-4,8.94-1.47-1.7c-.34.89-.69,1.77-1,2.66l-1.26-2.58-7.09,21.12q.85-9.25,1.72-18.5-1.62,5.81-3.22,11.62c0-1.59-.05-3.18-.07-4.77l-2.91,8.2c.52-2.81,1-5.62,1.55-8.43a35.86,35.86,0,0,1-20.45,20.19c-1.23.47-3.69,1.23-4.79,0-1.25-1.37-.18-4.3.64-5.6a15.11,15.11,0,0,1,4.64-4.22C172.53,81.52,174.29,80.06,176.06,78.66Z"/><path class="cls-3" d="M32.69,162l-6.78,7.36a88.28,88.28,0,0,1,23.44-15.15l-5.67,4.61L59.35,148.2a58.16,58.16,0,0,0-15.63,7.13q9-5.66,18-11.29a117.56,117.56,0,0,0-34.1,16.37c-9.91,6.91-19.06,15.85-22.83,27.33A15.59,15.59,0,0,1,8.69,182c1.72-1.58,3.11-3.39,4.67-5.11a69.23,69.23,0,0,1,11.72-10.3A68.54,68.54,0,0,1,32.69,162Z"/><path class="cls-2" d="M183.46,72.46c-.92.77-1.85,1.53-2.78,2.28A32.09,32.09,0,0,0,183.46,72.46Z"/><path class="cls-2" d="M164.58,86.31l-4,3.47q4.68-3.21,9.25-6.61l-8.56,1.54Z"/><path class="cls-2" d="M171,83l-.73-.13-.48.35Z"/><path class="cls-2" d="M215.56,41.88q-4.44,4.86-9.08,9.54A46.15,46.15,0,0,0,215.56,41.88Z"/><path class="cls-2" d="M218.38,37.34a43.43,43.43,0,0,1-2.82,4.54c1.12-1.22,2.23-2.46,3.32-3.7,2.51-2.83,5-5.72,7.33-8.69l-17.1,8.7Z"/><path class="cls-2" d="M238.53,9c-7.74,8.9-19.31,14-31.57,17.55l13.8-.7-11,5.34,10-2.08c-.29.39-.59.77-.89,1.15l7.8-1.41a119.65,119.65,0,0,0,11.36-16.92C238.4,10.06,238.53,9,238.53,9Z"/><path class="cls-2" d="M185.78,65.43l.61-.2A.88.88,0,0,0,185.78,65.43Z"/><path class="cls-2" d="M194.47,62.53l-8.08,2.7a1.56,1.56,0,0,1,1.39,1.34,3.66,3.66,0,0,1-1.11,2.52,30.09,30.09,0,0,1-3.21,3.37q12-9.94,23-21a46.16,46.16,0,0,1-24.55,9.86Z"/><path class="cls-2" d="M162,81.26l8.3,1.56q5.28-3.93,10.41-8.08A33.64,33.64,0,0,1,162,81.26Z"/><path class="cls-4" d="M20.83,147.06a1.71,1.71,0,0,0,1.39-.82,8.94,8.94,0,0,0,.63-2.36c.61-2.41,2.81-4,4.85-5.42l4.58-3.13.54-.76,9.81-.3-9.19-3.81A74.53,74.53,0,0,0,12.9,150.11c-.14.19-.26.4-.4.6l17.33-.25Z"/><path class="cls-4" d="M185.87,65.87a81.59,81.59,0,0,1-51.43-10l25.83,6.31-16.34-7.28,4.16-.5-4.73-4.23a1.26,1.26,0,0,0,.15-2.35l2.24-1.64c-1.83-.47-3.67-.91-5.52-1.3A55.69,55.69,0,0,0,119.4,62.28a43.77,43.77,0,0,1,13.18,3c6.3,2.32,12.37,5.36,18.93,6.78a40.58,40.58,0,0,0,27.4-3.54,41.37,41.37,0,0,1-34.66,5.94c-8.09-2.29-15.39-7-23.64-8.65-1.11-.21-2.23-.35-3.35-.46-4.39,6.53-8.09,13.6-12.75,20A215.79,215.79,0,0,1,128.3,99.2a241.67,241.67,0,0,0-27.16-9.7c-9.27,10.65-22,17.77-34.73,23.9-.72.35-1.45.68-2.17,1l27.9,13.22-4.31-3.84,4.4,1-.8-2,10.43-3.34c2.32-3.5,6.45-5.37,10.54-6.31s8.34-1.11,12.4-2.14c10.49-2.67,18.67-10.62,26.33-18.26a83,83,0,0,1-36.25-11.87l24.61,5L120.65,78l21.24,5.21-15-6.56A60.31,60.31,0,0,0,185.87,65.87Z"/><path class="cls-1" d="M136.36,105.64a13.27,13.27,0,0,0-1.6-2.84,52.9,52.9,0,0,0-21-17.26,70.8,70.8,0,0,1,10.59,11.09c1.32.85,2.64,1.69,3.94,2.57-.94-.4-1.9-.77-2.85-1.16l.1.12-.36-.23a242.88,242.88,0,0,0-24-8.43c-.63.72-1.27,1.43-1.93,2.12q4.67,3.18,9.59,5.93a6.47,6.47,0,0,0-4.48,2l.87,2.55-3.87,0,3.91,3.09-13.75-5.15a59.16,59.16,0,0,0,17,9.48,57.16,57.16,0,0,1-16.83-6.17,44.5,44.5,0,0,0,17.68,10.71,27.68,27.68,0,0,1,3.12-.92c4.09-.93,8.34-1.11,12.4-2.14A37.3,37.3,0,0,0,136.36,105.64Z"/><path class="cls-4" d="M35.66,129l7.87,1.24c-1.5-1.1-3-2.2-4.56-3.24C37.85,127.68,36.75,128.35,35.66,129Z"/><path class="cls-4" d="M56.24,118.2l11.88,7-9.65-8Z"/><path class="cls-4" d="M61.89,115.54l3,1.38-2.08-1.84Z"/><path class="cls-4" d="M60.39,116.24l-1.43.68,4.74,2.45Z"/><path class="cls-2" d="M1.93,200.28c1.68-13.2,9.86-25.16,20.13-33.79C33.26,157.07,46.81,151,60.17,145l11.25-5-.67-.32c-.25.1-.51.19-.94.4-4.62-2.29-15.89-8.55-23.78-11.84l15.4,9.87-9-2,6.29,4.22-9.22-.81,6.78,3.59A66.12,66.12,0,0,0,34,141l14.3,5.29-13,.3L47.1,148l-14.4,5.88c-2.05.84-4.1,1.68-6.13,2.58A113,113,0,0,0,12,164.2l7.93-.89A39.51,39.51,0,0,0,.57,181.71a66.89,66.89,0,0,0-.48,12.1c.15,2.79,1.35,9.08,1.35,9.08A15,15,0,0,1,1.93,200.28Z"/><path class="cls-5" d="M1.44,202.89s.07-.62.22-1.78c.08-.58.14-1.31.29-2.15s.36-1.81.57-2.9.61-2.26,1-3.56c.22-.64.46-1.3.7-2A22.3,22.3,0,0,1,5,188.4a49.29,49.29,0,0,1,5.08-9.3c4.41-6.5,11.19-13,19.59-18.8a139.28,139.28,0,0,1,13.62-8.15c4.85-2.54,9.93-5,15.14-7.33s10.51-4.73,15.79-7.21,10.67-4.86,16-7.18c10.69-4.64,21.26-9.18,30.77-14.27a144.73,144.73,0,0,0,13.35-8c4.15-2.78,8-5.53,11.66-8.16,7.22-5.27,13.35-10,18.12-13.7l15-11.63c5.16-4,10.33-8.23,15.33-12.65A233.58,233.58,0,0,0,221.09,34.4a201.71,201.71,0,0,0,16.55-24.24c1.86-3.17,3.29-5.73,4.29-7.49A20.3,20.3,0,0,1,243.54,0a16.37,16.37,0,0,1-1.24,2.87c-.88,1.82-2.2,4.45-4,7.69a181,181,0,0,1-16.1,24.76,224.6,224.6,0,0,1-26.52,28.09c-5,4.49-10.18,8.79-15.35,12.83L165.43,87.9c-4.78,3.69-10.94,8.43-18.24,13.67-3.65,2.62-7.58,5.36-11.78,8.12a142.8,142.8,0,0,1-13.57,8c-9.65,5.06-20.3,9.51-31,14-5.37,2.26-10.76,4.55-16.06,7s-10.66,4.72-15.88,7-10.32,4.66-15.18,7.14A138,138,0,0,0,30,160.85c-8.41,5.62-15.23,12-19.69,18.44a48.75,48.75,0,0,0-5.17,9.18c-.34.71-.6,1.42-.85,2.1l-.72,2c-.36,1.29-.73,2.47-1,3.54s-.43,2-.61,2.89-.23,1.56-.32,2.14C1.52,202.27,1.44,202.89,1.44,202.89Z"/><path class="cls-6" d="M204,76.89c-9.11,6.8-24.12,8.24-35,9.6-11.61,1.45-23.18,2-34.49,4.63a84.91,84.91,0,0,0-9.28,2.68,82.24,82.24,0,0,0-9,3.82l8.88,5.4c-4-1.16-7.47-3.09-11.18-4.23q-2.22,1.18-4.38,2.51a99.47,99.47,0,0,0,18.82,9.85L104,105c-2,1.42-3.87,2.92-5.7,4.51-8.67,7.54-13.92,17.42-20.93,26.36a105.74,105.74,0,0,1-46.49,33.8c20-5.54,40.28-11.23,57.7-22.44,13.45-8.66,24.74-20.35,38.28-28.86,17.12-10.75,37.06-16,55.44-24.38s37.49-23.47,43.52-42.76C221.33,60.52,212.24,70.76,204,76.89Z"/><path class="cls-3" d="M98.29,109.5c-8.67,7.54-13.92,17.42-20.93,26.36a102.46,102.46,0,0,1-8.44,9.47c7.58-5.54,13.46-13.08,19.2-20.53,2.25-2.92,4.56-5.68,6.67-8.66A23.15,23.15,0,0,1,103,109c4.53,2.4,8.92,5.06,13.45,7.46l-11.1-8.08,10.39,4.12-7-4.43,4,1.07-2.43-1.43,8.89,2-6.95-2.65L104,105C102,106.41,100.12,107.91,98.29,109.5Z"/><path class="cls-3" d="M134.53,91.12c-2.1.48-4.18,1-6.26,1.68,6.23.11,12.54-1.16,18.72-2.29,8.3-1.52,17-2.76,25-.1L167.58,88l7,1.07a26.56,26.56,0,0,0-4.34-2.7l-1.23.15C157.41,87.94,145.84,88.52,134.53,91.12Z"/><path class="cls-3" d="M119.53,104.55l-6.87-5.07c-.86.49-1.72,1-2.57,1.49Z"/><path class="cls-3" d="M113.09,99.25l6.33,3.24a43.81,43.81,0,0,0-4.18-3.26c-.44-.16-.88-.31-1.32-.44C113.64,98.93,113.37,99.09,113.09,99.25Z"/><path class="cls-4" d="M70.76,111.26c-.63.32-1.26.64-1.9.95l16,5.94Z"/><path class="cls-4" d="M85,113.9l-6.11-3.75,4.29,1.21-2.51-2.27,2.72-3L86.13,103a10,10,0,0,0,.88-1.13,128.58,128.58,0,0,1-12.8,7.63Z"/><path class="cls-4" d="M132.58,65.26c6.3,2.32,12.37,5.36,18.93,6.78,1,.23,2.07.4,3.12.55l-.77-.73,5.72-.35L152.15,68l5.46-.26-2.68-1.5,5.73.1-9.8-1.79,3.21,1.5a54.16,54.16,0,0,1-15.65-3.81l11.43,6.26-6.41-1.42,8.74,3.63-15.11-4.76c-1.66-.53-3.33-1.06-5-1.5-.87-.22-3.49-1.26-4.3-.82,0,0,0,0-.07,0C129.33,64.12,131,64.67,132.58,65.26Z"/><path class="cls-4" d="M150,40.62l.31.09c13.19,1.06,24.94,10.2,38.25,11.41a35.77,35.77,0,0,1-12.58-4.78,63.94,63.94,0,0,0,24.83,1.29l-7.52-2.36a6.31,6.31,0,0,0,3.92-1.3l-1.78-1.12,9.28-2.22a84.72,84.72,0,0,1-26.92-6.38l22,.45-7.1-2.43,6.18-.34-1.9-1,8.22-1-8.41-1.77c-5.85,1.34-11.67,2.47-17.12,3.62C169.74,34.88,159.49,37.11,150,40.62Z"/><path class="cls-4" d="M189.4,46.17a99.1,99.1,0,0,1-28.87-5.52C170.34,42.06,179.58,44.75,189.4,46.17Z"/><path class="cls-4" d="M168.5,35.24c-2.34.55-4.68,1.14-7,1.76A85.5,85.5,0,0,0,184,41l-10.1-2.61,9.14.93A92.65,92.65,0,0,1,168.5,35.24Z"/></g></g></svg>