<svg xmlns="http://www.w3.org/2000/svg" viewBox="0 0 210.88 237.32"><defs><style>.cls-1{fill:none;}.cls-2{fill:#358554;}.cls-3{fill:#a38d41;}.cls-4{fill:#1d674b;}.cls-5{fill:#1d4d3d;}.cls-6{fill:#6ba682;}.cls-7{fill:#04392c;}.cls-8{fill:#00201e;}.cls-9{fill:#5c9d75;}</style></defs><title>Asset 1</title><g id="Layer_2" data-name="Layer 2"><g id="OBJECTS"><path class="cls-1" d="M38.66,44.54c-1,.49-2.36,1.7-2,3a2.21,2.21,0,0,0,3,1.18,3.38,3.38,0,0,0,1.35-1.3A3,3,0,0,0,41.52,46,1.72,1.72,0,0,0,41,44.67,2.18,2.18,0,0,0,38.66,44.54Z"/><path class="cls-1" d="M51,25.25a2.9,2.9,0,0,0-1.5,2.33c.2,1.19,1.78,1.09,2.57.67a2.55,2.55,0,0,0,1.07-1,1.56,1.56,0,0,0,.06-1.44A1.68,1.68,0,0,0,51,25.25Z"/><path class="cls-1" d="M87.88,109.25l-1.47.34-1.27.32c-.43.12-.85.26-1.28.39a1.55,1.55,0,0,0-.06.23c-.13,1.46,1.48,2.39,2.83,2.93a46.13,46.13,0,0,1,9.49,4.64l1.19-.25-7.46-7A11,11,0,0,0,87.88,109.25Z"/><path class="cls-1" d="M136.42,72.79c-1.07-.42-3.33-.33-4.12.65-1.15,1.43.55,3.1,1.82,3.56a3.81,3.81,0,0,0,2.21.19A2.35,2.35,0,0,0,138,75.82,2.51,2.51,0,0,0,136.42,72.79Z"/><path class="cls-1" d="M72.7,116.38a5.19,5.19,0,0,0-.82,2.74l.23.25q1.56,1.63,3,3.41a8.64,8.64,0,0,0,2.49,0c-.42-.59-.85-1.17-1.28-1.75C75.18,119.47,74,117.91,72.7,116.38Z"/><path class="cls-1" d="M88.35,120a.56.56,0,0,0,0,.08l2.87-.77A2.46,2.46,0,0,0,88.35,120Z"/><path class="cls-1" d="M74.76,88c-.7.14-1.4.29-2.1.46a2.13,2.13,0,0,0,.21,1.21c.67,1.47,3.1,2.7,4.6,1.83a2.34,2.34,0,0,0,1.06-2.4,2.8,2.8,0,0,0-.93-1.58c-.86.12-1.71.25-2.56.42Z"/><path class="cls-1" d="M42.6,57.37a26.5,26.5,0,0,1,1.67-4.1c-.47.14-.94.29-1.4.46a4.61,4.61,0,0,0-2.29,1.45,2.06,2.06,0,0,0-.33,1.58l1.75.43Z"/><path class="cls-1" d="M56.15,101.19a2.76,2.76,0,0,0-1.77,2.69l.2.07a4.87,4.87,0,0,0,.83.23,5.38,5.38,0,0,0,1.55,0,9.46,9.46,0,0,0,3.33-1.2l-.11-.1C59.07,101.86,57.62,100.75,56.15,101.19Z"/><path class="cls-1" d="M4.53,119.49a4.38,4.38,0,0,0,.2-4.86C3.68,113.21,1.82,113,0,113.42v10.1L.74,123A14.32,14.32,0,0,0,4.53,119.49Z"/><path class="cls-1" d="M61,54.13a36.82,36.82,0,0,0,2.25-3.34c.24-.39.48-.79.73-1.22-1.2.34-2.43.61-3.66.85a25.28,25.28,0,0,0-1.93,3.82C59.22,54.22,60.09,54.18,61,54.13Z"/><path class="cls-1" d="M0,0V51.31a17.12,17.12,0,0,1,4.7-7.65c-.22,4.93,2.76,14.41,3.63,12.67.42-.84,0-2.49-.59-4.6a81.54,81.54,0,0,1-2.48-8.68A12.93,12.93,0,0,1,7.65,32.4,13.62,13.62,0,0,1,9,31v0a12.68,12.68,0,0,1,7.92-3.35h0l.56,0a9.48,9.48,0,0,0-4.31,6.78c-.2,1.63-.1,4.71,1.42,5.76,2.14,1.47,3.11-1.78,3.24-3.34.38-5,.49-9.59,3.11-14a11.51,11.51,0,0,1,3.31-3.79A8.91,8.91,0,0,1,31,17.88,12.2,12.2,0,0,1,36.36,21c-1.89-1.23-5.15.5-6.51,1.73a7.65,7.65,0,0,0-.79.82l-.17.21a7.23,7.23,0,0,0-.63.9l0,0a8.43,8.43,0,0,0-.55,1.08.36.36,0,0,0,0,.09A9.58,9.58,0,0,0,27.26,27a8.94,8.94,0,0,0-.3,1.91,2.08,2.08,0,0,0,.67,1.87,2.21,2.21,0,0,0,2.13-.18,17,17,0,0,0,6.13-4.95c1.5-2,2.3-4.76,3.13-7.09a26,26,0,0,1,2.73-5.87l0-.06.12-.15c.23-.32.47-.63.72-.92l.25-.29a10.42,10.42,0,0,1,1.08-1A12.38,12.38,0,0,1,50.5,7.8a34.12,34.12,0,0,1,6.92.31,14.27,14.27,0,0,0-8.25,7.48,4.25,4.25,0,0,0-.46,1.65,1.57,1.57,0,0,0,2.36,1.52,4.33,4.33,0,0,0,1.32-1.09c1.84-2.06,3.12-4.54,4.73-6.78h0l.28-.39c.19-.25.38-.49.58-.73h0a12.35,12.35,0,0,1,4-3.32l0,0,.18-.08.26-.11a6.15,6.15,0,0,1,.82-.29l.19,0a5.92,5.92,0,0,1,1-.19,19.86,19.86,0,0,1,4,.17,7.07,7.07,0,0,0,3.92-.58c-.55,1.21-1.25,2.2-1.81,3.41a10.48,10.48,0,0,1-1.74,2.94c-1.48,1.57-3.73,2.08-5.74,2.87a18.62,18.62,0,0,0-8.65,7.05,2.69,2.69,0,0,0-.59,2.21,1.8,1.8,0,0,0,2,1.07,3.29,3.29,0,0,0,2-1.26c.52-.63.89-1.35,1.35-2A10.71,10.71,0,0,1,68.73,17c1.47.14,2.89.57,4.35.8a6.76,6.76,0,0,0,4.32-.36,5.15,5.15,0,0,0-1.94,4.08,7.41,7.41,0,0,1-2,4A17.18,17.18,0,0,1,68,29.24c-6.89,3.3-14.51,5.11-20.95,9.23a7.84,7.84,0,0,0-2,1.64,3.12,3.12,0,0,0-.72,2.42,2,2,0,0,0,1.75,1.64c1,0,1.74-.8,2.42-1.51A19.75,19.75,0,0,1,60,36.73c1.76-.25,3.54-.25,5.31-.45a11.51,11.51,0,0,0,5-1.58,5.78,5.78,0,0,0,2.64-4.44,8.5,8.5,0,0,1,3.12,3.86,19,19,0,0,1,8.8-2.85,20.13,20.13,0,0,1,2.91.18h0A19.06,19.06,0,0,1,99.48,37h0l.61.61a14.3,14.3,0,0,0-12,2c-2,1.41-5.39,4.63-5,7.38.49,3.88,5.13,1.72,7,.28,6-4.56,11.27-9.07,18.9-10.59a17.21,17.21,0,0,1,7.59-.08,13.4,13.4,0,0,1,8,6.34c1.56,2.68,1.91,6,1.92,9.18-.51-3.36-5.73-5.29-8.48-5.59a11.48,11.48,0,0,0-1.17-.07h-.37l-.82,0-.41,0c-.35,0-.69.09-1,.15l-.57.13-.5.13c-.22.06-.44.12-.66.2l-.33.11a13.62,13.62,0,0,0-1.52.65,12.86,12.86,0,0,0-2.45,1.59,3.13,3.13,0,0,0-1.43,2.63c.16,1.12,1.3,1.78,2.34,2.21a25.68,25.68,0,0,0,11.72,1.92c3.75-.3,7.67-2.2,11.13-3.61,3.77-1.53,7.77-3,11.79-3H144l.92,0,.28,0c.37,0,.74.08,1.11.14a18.67,18.67,0,0,1,9.3,4.94,51.15,51.15,0,0,1,6.61,8.1,21.56,21.56,0,0,0-16.71-1.77,6.1,6.1,0,0,0-2.31,1.14,2.61,2.61,0,0,0-1,2.29,2.65,2.65,0,0,0,1.63,1.89,6.44,6.44,0,0,0,2.55.39c4.15,0,8.23-1,12.37-1.49h0l.72-.08,1.4-.09h0a18.57,18.57,0,0,1,7.76,1.17h.08l.26.12.4.18a10.59,10.59,0,0,1,1.14.63l.25.16a10.73,10.73,0,0,1,1.16.88A30.4,30.4,0,0,1,175.78,73a10.75,10.75,0,0,0,4.58,3.83c-1.92.6-3.73.79-5.65,1.39a15.79,15.79,0,0,1-5.06,1c-3.25-.08-6.08-2.1-9-3.56A28,28,0,0,0,144,73,4.07,4.07,0,0,0,141,74.51a2.73,2.73,0,0,0,.77,3.28,5,5,0,0,0,3.43,1,36.43,36.43,0,0,0,3.61-.5,16.12,16.12,0,0,1,14.75,6.25c1.33,1.78,2.26,3.82,3.48,5.68s2.65,3.78,4.75,4.5c-2.55-.57-4.57.45-6.54,1.92a11.2,11.2,0,0,1-6.53,1.7,25.84,25.84,0,0,1-9.67-2.4c-10.64-4.43-20.33-11.18-31.42-14.28a11.8,11.8,0,0,0-3.85-.58,4.67,4.67,0,0,0-3.43,1.62,3,3,0,0,0-.1,3.61c1,1.14,2.66,1.16,4.14,1.21a29.7,29.7,0,0,1,18.2,7c2,1.73,3.84,3.73,5.84,5.51a17.27,17.27,0,0,0,6.83,4.08,8.69,8.69,0,0,0,7.65-1.5,12.93,12.93,0,0,1-1.45,7.93c-3.67,6.72-11.56,8.05-18.43,6.32a37.41,37.41,0,0,1-11.23-5.16,28.77,28.77,0,0,1,.63,3.5c-1-.6-2-1.16-3-1.68h0a45.57,45.57,0,0,0-8.22-3.27,66.43,66.43,0,0,0,8.64,8c.28.09.56.15.84.25.62.21,1.22.44,1.82.7l.5.22c.45.2.9.41,1.34.63l.46.23a28.49,28.49,0,0,1,3.42,2.1.91.91,0,0,1,.16.11l0,0,.64.17c2.4.54,5.08.33,6.32-1.8a8.52,8.52,0,0,1-1.08,7.14c.06.08.13.16.19.25h0a29.91,29.91,0,0,1,4.52,7.72,28.63,28.63,0,0,1,1.34,17.23v0c-.11.47-.23.94-.37,1.41a.84.84,0,0,0-.05.17c-.13.42-.26.85-.41,1.27,0,.12-.09.24-.14.36-.13.36-.26.72-.4,1.08s-.19.43-.29.65-.22.52-.34.78c-.22.48-.46,1-.71,1.43-1.16-7-7.42-12-13.76-15.24a61.37,61.37,0,0,0-7.41-3.17,12.84,12.84,0,0,1-4.33,2.7,16.92,16.92,0,0,1-10.44.15,27.86,27.86,0,0,1-8.47-4.29,3.55,3.55,0,0,0-.66,3.45c.73,1.81,2.94,2.46,4.87,2.76,3.46.54,7,.7,10.48,1h0l1.11.1.23,0,1,.1.36,0,.92.11.4.05.89.14.42.06.89.16.41.07.89.19.4.08.9.23.38.1c.42.11.85.24,1.27.38s1,.33,1.42.51l.49.21.89.38.59.28.75.38.63.35.66.38.66.41.57.37.69.48c.14.1.28.2.41.31.63.46,1.23.94,1.81,1.45h0A27.82,27.82,0,0,1,136,167.13a29.43,29.43,0,0,1-.57,19.55,1.67,1.67,0,0,0-.08.2c-.21.52-.44,1-.68,1.54-.07.16-.15.31-.23.47-.19.39-.4.77-.61,1.15a1,1,0,0,0-.08.14c-.08.14-.16.29-.25.43l-.27.45c-.25.39-.5.77-.76,1.14a28.22,28.22,0,0,0-7.17-15.14,11.64,11.64,0,0,0-4.46-3.26,5.47,5.47,0,0,0-5.27.69,3.91,3.91,0,0,0-.62.67,5,5,0,0,0-.45.74h0A6.7,6.7,0,0,0,115,182a9.3,9.3,0,0,0,.77,1.09h0a24.15,24.15,0,0,0,4,3.66c.39.3.78.61,1.15.92,11.64,9.5,16,25,13.27,39.82.37-3.2-2.49-5.94-5.5-7.11s-6.33-1.37-9.3-2.62a14,14,0,0,1-7.65-8.11q-.19-.57-.36-1.14a26.44,26.44,0,0,0-1.1-3.4,5.29,5.29,0,0,0-3.35-3.17,4.57,4.57,0,0,0-4.37,1.79,9.18,9.18,0,0,0-1.7,4.62,18.9,18.9,0,0,0,3.42,14.34c-6.56-.35-12.48-4.62-16-10.14s-5-12.16-5.45-18.7,0-13.13-.07-19.69c0-2.72-.53-6-3-7a4.78,4.78,0,0,0-4.85,1.06A11.41,11.41,0,0,0,72,172.54c-4.44,10.74-3.44,23.34,2,33.62,2.45,4.63,6,8.91,8.82,13.33s4.58,9.87,4.11,15a6.44,6.44,0,0,0-3.39-3.34,19.1,19.1,0,0,0-4.7-1.26c-7.15-1.28-15.55-2.12-21.79-6.1-6.74-4.31-11.18-12.54-12-20.51s1.08-16.23,4-23.69,7.41-14.53,10.59-21.88a10.76,10.76,0,0,0,1.15-4.08,4,4,0,0,0-1.88-3.61c-2-1-4.23.45-5.84,1.93a44.1,44.1,0,0,0-13.6,25.28c-1.13,7.07-.51,14.36-1.89,21.4s-5.81,13.78-12.67,15.86c1.26-2.22.79-5.07-.4-7.33s-3-4.1-4.57-6.12c-11.06-14.32-8.58-34.71-1.07-50.6l.15-.31c.25-.53.51-1.05.78-1.57.08-.17.17-.33.25-.5.24-.45.48-.9.73-1.35l.3-.56.75-1.3.3-.51c.35-.58.71-1.16,1.07-1.72a27.27,27.27,0,0,0,3.34-6.1,7.26,7.26,0,0,0-.78-6.65l-.18-.19h0c-1.76-2-4.87-2.41-7.44-1.63A23.59,23.59,0,0,0,3.81,141.7c-4,9.77-2.31,20.9.46,31.08s5.61,19.56,5.82,30.1a7.08,7.08,0,0,0-4.55-4.26A33.36,33.36,0,0,0,0,197.4v39.92H210.88V0Z"/><path class="cls-1" d="M3.7,71.1c.32.51.75,1.05,1.35,1.07.82,0,1.33-1,1.11-1.82a4.69,4.69,0,0,0-1.48-2,17.85,17.85,0,0,1-4.68-8V70.5a11.93,11.93,0,0,1,1.79-5.42A13.25,13.25,0,0,0,3.7,71.1Z"/><path class="cls-1" d="M9.94,94v-.23a69.3,69.3,0,0,1,1.23-10.15l.12-.53c-.34,0-.69,0-1-.07l-.16,0-.34,0c-.27,0-.54-.1-.8-.17l-.12,0h0l-.15,0-.31-.08q-.65-.19-1.26-.45L6.73,82c-.29-.13-.57-.28-.85-.44l-.43-.25a12.36,12.36,0,0,1-1.06-.72l-.32-.28c-.18-.14-.35-.28-.51-.43v0A11.37,11.37,0,0,1,1.29,77,11.23,11.23,0,0,1,0,72.67V92.73C3.14,94.22,7,95.61,9.94,94Z"/><path class="cls-1" d="M11.43,92.9c.15-.16.3-.32.44-.5s.11-.14.15-.21A5.47,5.47,0,0,0,13.16,88a21.46,21.46,0,0,1-1.37-3.87,85.75,85.75,0,0,0-1.46,9.67,4.57,4.57,0,0,0,.57-.41l.08-.07A4.47,4.47,0,0,0,11.43,92.9Z"/><path class="cls-1" d="M98.76,83.69a5.13,5.13,0,0,0,2.83.19,4.41,4.41,0,0,0,2-.85,2.61,2.61,0,0,0,1-1.88,3.27,3.27,0,0,0-2.26-2.81c-1.55-.65-4.28-1-5.31.74a2.75,2.75,0,0,0-.3,2.16c.52.71,1,1.43,1.52,2.17A3.05,3.05,0,0,0,98.76,83.69Z"/><path class="cls-1" d="M95.47,91.9a5.89,5.89,0,0,0-3.14-.71,3.14,3.14,0,0,0-1.63.7A44.64,44.64,0,0,1,95.47,91.9Z"/><path class="cls-1" d="M14.65,52.91c1.19-.41,1.15-1.75,1-2.78a5.24,5.24,0,0,0-.53-1.78,1.84,1.84,0,0,0-1.51-1c-2.07,0-2.09,3.6-1.22,4.85A2.08,2.08,0,0,0,14.65,52.91Z"/><path class="cls-2" d="M63.13,50.94l.09-.15A36.82,36.82,0,0,1,61,54.13L62,54.05C62.37,53,62.73,52,63.13,50.94Z"/><path class="cls-2" d="M79.64,49.17l-2.48,1.15A6.37,6.37,0,0,1,77.51,52Z"/><path class="cls-2" d="M77.91,46.9l-2,1.27a6.06,6.06,0,0,1,1,1.46Z"/><path class="cls-2" d="M63.76,53.17,62.69,54l.54-.06C63.41,53.68,63.59,53.43,63.76,53.17Z"/><path class="cls-2" d="M145.16,49.66c.37,0,.74.08,1.11.14C145.9,49.74,145.53,49.7,145.16,49.66Z"/><path class="cls-2" d="M75.46,41.9c.64-.6,1.29-1.17,1.94-1.68a24.24,24.24,0,0,1,5-3.09,19.25,19.25,0,0,1,3.83-1.28c.47-.1.84-.17,1.09-.2l.39-.06-.38.07c-.25.05-.62.13-1.08.25a19.58,19.58,0,0,0-3.75,1.43,24.6,24.6,0,0,0-4.84,3.24,36.61,36.61,0,0,0-4.81,5.07c-1.52,1.93-3,4-4.33,6.13-.29.43-.56.86-.83,1.29a15.22,15.22,0,0,0,4.59-2.17c1.33-.95,2.41-2.37,1.91-3.92a4.82,4.82,0,0,1,1,.6A20.87,20.87,0,0,1,99,37.28l.44-.28a19.06,19.06,0,0,0-11.71-5.55A34.15,34.15,0,0,0,76.71,37,9.1,9.1,0,0,1,75.46,41.9Z"/><path class="cls-2" d="M115.29,46.49c-.35,0-.69.09-1,.15C114.6,46.58,114.94,46.53,115.29,46.49Z"/><path class="cls-2" d="M58.16,54.25h.2a25.28,25.28,0,0,1,1.93-3.82c-1,.18-2,.35-3,.49q-.86.14-1.71.24a28.19,28.19,0,0,0-1.75,3.28C55.29,54.34,56.74,54.29,58.16,54.25Z"/><path class="cls-2" d="M112.52,47.1l-.33.11Z"/><path class="cls-2" d="M113.68,46.77l-.5.13Z"/><path class="cls-2" d="M144,49.6l.92,0Z"/><path class="cls-2" d="M116.52,46.42l-.82,0Z"/><path class="cls-2" d="M43,57.48c.17-.08.34-.18.51-.27A20.91,20.91,0,0,1,45.2,53q-.47.12-.93.27a26.5,26.5,0,0,0-1.67,4.1Z"/><path class="cls-2" d="M79.08,53.93q-.22.51-.48,1L81.8,51l-4.4,2.75a8.5,8.5,0,0,1-1.16,2.91Z"/><path class="cls-2" d="M63.84,53.87q2-1.44,4-2.86c1.16-1.65,2.38-3.29,3.64-4.84l-.29.21a21.74,21.74,0,0,1-3,1.66L63.5,53.91Z"/><path class="cls-2" d="M53,54.49a29.36,29.36,0,0,1,1.89-3.24c-1.35.18-2.71.36-4.07.58A23.85,23.85,0,0,0,49,55.06,30.14,30.14,0,0,1,53,54.49Z"/><path class="cls-2" d="M74.37,59l0,0a18.05,18.05,0,0,1-7.92,4.09c-.39.1-.79.17-1.19.26a12.56,12.56,0,0,1-.95,2.45l.34.07a20.79,20.79,0,0,1,4.6-.33c.31-.46.62-.94.89-1.44l-.3,1.48c.47,0,.94.07,1.4.12a12.24,12.24,0,0,0,4.16-3.5c.08.13.14.28.21.42l1.64-2c-1.83,1.06-4.16,3-6.22,3.4.86-1.6,2.82-2.9,4.18-4.06,2.13-1.81,4.32-3.55,6.51-5.29a26,26,0,0,1-4.36,2A9.86,9.86,0,0,1,74.37,59Z"/><path class="cls-2" d="M48.61,55.16l.9-3.11h0l-2.1,3.43C47.79,55.36,48.2,55.25,48.61,55.16Z"/><path class="cls-2" d="M45.82,56c.32-1.15.64-2.3,1-3.44l-.13,0q-1.32,2.16-2.65,4.3A15.33,15.33,0,0,1,45.82,56Z"/><path class="cls-2" d="M52.69,66.15a19.73,19.73,0,0,1,2.75-.92l.71-.67h-.88l-2.52.22Z"/><path class="cls-2" d="M97.87,55.62l-4.44,2.77a12.14,12.14,0,0,1,2.23-.56Z"/><path class="cls-2" d="M61.88,65.29c.31-.49.63-1,1-1.51-.74.11-1.48.2-2.22.28q-.32.48-.63.93C60.63,65.06,61.26,65.17,61.88,65.29Z"/><path class="cls-2" d="M100.15,56.74l-1.71,1,.9.11Z"/><path class="cls-2" d="M46.38,67.94a1.29,1.29,0,0,0,1,.39,33.39,33.39,0,0,0,2.06-3.06,30.06,30.06,0,0,0-3.07.92A1.44,1.44,0,0,0,46.38,67.94Z"/><path class="cls-2" d="M104,43a33.33,33.33,0,0,0-7.85,4.82,75.84,75.84,0,0,0-6.91,6.43l8-6.42q-3.19,5.7-6.38,11.42c2.68-2.26,5.38-4.52,7.89-7,2.25-2.2,5.34-3.48,8.34-4.74l2.06-2.17-6.88,1.55a21.37,21.37,0,0,1,9.72-5.76h-.56A23.47,23.47,0,0,0,104,43Z"/><path class="cls-2" d="M35.19,76.07l-.28,0,.51.65C35.35,76.52,35.27,76.3,35.19,76.07Z"/><path class="cls-2" d="M89,50A33.17,33.17,0,0,1,75.8,63.06a7.25,7.25,0,0,1,.43,1.58L80.78,61l.46-.4.36-.34c.11-.1.22-.2.32-.31v0c4.34-4,8.78-9,13.8-12.75a33.82,33.82,0,0,1,8.13-4.67,24,24,0,0,1,7.64-1.6c.48,0,.93,0,1.37,0a21.06,21.06,0,0,1,8.73-.26c-4-4-10.66-4.47-16-2.57s-9.86,5.71-14.21,9.41a73.26,73.26,0,0,1-8.15,6.27c-1,1.56-2.07,3.13-3.1,4.69Z"/><path class="cls-2" d="M33.28,76.19l-1.1.07c-1,.09-2.21.31-2.64,1.23a1.85,1.85,0,0,0,.62,2.13,3.13,3.13,0,0,0,2.27.53,2.93,2.93,0,0,0,.41-.07l-2-3.36,4.29,2.68.38-.11c-.38-.43-.74-.86-1-1.27S33.76,77,33.28,76.19Z"/><path class="cls-2" d="M116.89,46.42a11.48,11.48,0,0,1,1.17.07A11.48,11.48,0,0,0,116.89,46.42Z"/><path class="cls-2" d="M105.85,49.38a24.07,24.07,0,0,0-3.52,4.09l1.49-.44-.48,1.28,2,.67L102,58.31a7.67,7.67,0,0,1,6-.56,9.69,9.69,0,0,1-4.33,1.69,13.65,13.65,0,0,0,4.76,1.62l.9-.16c3.48-.62,7-1,10.46-1.37a38.54,38.54,0,0,0,3.94-1.68c5.84-2.87,11.42-6.71,17.72-8.09a16.77,16.77,0,0,1,2.35-.16c-4,0-8,1.47-11.79,3-3.46,1.41-7.38,3.31-11.13,3.61a25.68,25.68,0,0,1-11.72-1.92c-1-.43-2.18-1.09-2.34-2.21a3.13,3.13,0,0,1,1.43-2.63,12.86,12.86,0,0,1,2.45-1.59h0A11.65,11.65,0,0,0,105.85,49.38Z"/><path class="cls-3" d="M67.71,51.2l.14-.19q-2,1.43-4,2.86c.77-.1,1.54-.23,2.29-.39Z"/><path class="cls-3" d="M76.22,34.47A8.51,8.51,0,0,1,76.71,37a34.15,34.15,0,0,1,11.06-5.59h0a20.13,20.13,0,0,0-2.91-.18,19,19,0,0,0-8.8,2.85C76.11,34.24,76.17,34.35,76.22,34.47Z"/><path class="cls-3" d="M63.13,50.94c-.4,1-.76,2.06-1.09,3.11l.65,0,1.07-.83c-.17.26-.35.51-.53.77l.27,0L68.22,48A27.45,27.45,0,0,1,64,49.57c-.25.43-.49.83-.73,1.22Z"/><path class="cls-4" d="M51,66.88c.54-.26,1.09-.5,1.65-.73l.06-1.38-1.45.13h0l-.09.79Z"/><path class="cls-4" d="M35.19,76.07c.08.23.16.45.23.67l.3.39c.4.54.84,1.14,1.29,1.72a36.94,36.94,0,0,1,7.17-1.14l.19-.09c.46-.49.9-1,1.31-1.52A96.6,96.6,0,0,0,35.19,76.07Z"/><path class="cls-4" d="M58.38,64.28l.23.13.11-.16Z"/><path class="cls-4" d="M80.78,61l-4.55,3.63a.2.2,0,0,1,0,.07A56.48,56.48,0,0,0,80.78,61Z"/><path class="cls-4" d="M131.58,69.55l-.29.21,4-.17-3.52,0Z"/><path class="cls-4" d="M70.12,64.1c-.27.5-.58,1-.89,1.44l.59,0Z"/><path class="cls-4" d="M100.49,59.37l.29-.85L98,59.68l1.35-1.84-.9-.11L92,61.46l3.64-3.63a12.14,12.14,0,0,0-2.23.56l-5.62,3.5c1-.89,2.07-1.76,3.11-2.64q3.18-5.72,6.38-11.42l-8,6.42c-2.44,2.49-4.79,5-7.16,7.28-.5.48-1,.93-1.49,1.38L78.81,67l6.44-1.66-4.57,3.06.06,0c4.06-1.26,10-3.14,16.85-4.93,3.42-.89,7.07-1.73,10.81-2.4a13.65,13.65,0,0,1-4.76-1.62A9.51,9.51,0,0,1,100.49,59.37Z"/><path class="cls-4" d="M56.74,69.42l.29-.19s0-.08,0-.12Z"/><path class="cls-4" d="M53.06,69.86a1.7,1.7,0,0,0,.57,1c.82-1,1.61-2,2.35-2.93C54.7,67.49,52.82,68.35,53.06,69.86Z"/><path class="cls-4" d="M160.89,65.13l7.76,1.17A18.57,18.57,0,0,0,160.89,65.13Z"/><path class="cls-4" d="M32.84,80.08a14.06,14.06,0,0,0,1.89-.55l.44-.13-4.29-2.68Z"/><path class="cls-4" d="M58,64.87c.1,0,.2,0,.31,0l.07-.1a20.48,20.48,0,0,0-2.2-.22l-.71.67A12.65,12.65,0,0,1,58,64.87Z"/><path class="cls-4" d="M49.08,67.84l.49-.25c.13-.66.26-1.35.37-2.07l.06-.38-.54.13a33.39,33.39,0,0,1-2.06,3.06A4.27,4.27,0,0,0,49.08,67.84Z"/><path class="cls-4" d="M123.7,57.85a38.54,38.54,0,0,1-3.94,1.68l1.72-.19c2-.23,3.94-.5,5.81-.85s3.68-.8,5.4-1.25a51.53,51.53,0,0,1,9.38-1.89,18.34,18.34,0,0,1,6.52.59,13.39,13.39,0,0,1,1.69.61l.57.27-.58-.25a11.76,11.76,0,0,0-1.7-.57,18.11,18.11,0,0,0-6.48-.42,51.23,51.23,0,0,0-9.27,2.12c-1.72.49-3.52,1-5.41,1.39s-3.84.71-5.83,1c-4,.55-8.1,1-12.1,1.81s-7.91,1.76-11.56,2.78c-4.48,1.26-8.58,2.54-12,3.64l16.5-2-2.66,1.88c2.8-.1,5.67-.15,8.57-.14l20.48-3.66-4,2.51,12.12-1.23-4.31,3.18c4.34.12,8.57.21,12.59.36l25.21-1-11.61-2.85c-4.14.44-8.22,1.49-12.37,1.49a6.44,6.44,0,0,1-2.55-.39,2.65,2.65,0,0,1-1.63-1.89,2.61,2.61,0,0,1,1-2.29,6.1,6.1,0,0,1,2.31-1.14,21.56,21.56,0,0,1,16.71,1.77,51.15,51.15,0,0,0-6.61-8.1,18.67,18.67,0,0,0-9.3-4.94c-.37-.06-.74-.1-1.11-.14l-.28,0-.92,0h-.19a16.77,16.77,0,0,0-2.35.16C135.12,51.14,129.54,55,123.7,57.85Zm12,3.92a270.11,270.11,0,0,0-28.57,4.59l6.86-2.31-6.48.92c2-.57,3.94-1.1,5.92-1.61q5.2-1.3,10.48-2.3,2.64-.5,5.29-.91c1.46-.22,7.38-1.58,7.38-1.58s-5,2-6,2.09l-5.69.82Zm14.29-8.32A17.34,17.34,0,0,1,146,52.23L150,54.52a16.14,16.14,0,0,0-8.35-1.47,49.56,49.56,0,0,0-8.43,1.53,17.91,17.91,0,0,1,5.4-2l-3.42.46C139.38,50.62,146.14,49.82,149.94,53.45Z"/><path class="cls-4" d="M97.08,70l4-.71c-1.09,0-2.16.1-3.23.16Z"/><path class="cls-4" d="M169,66.43l.4.18Z"/><path class="cls-4" d="M170.53,67.24l.25.16Z"/><path class="cls-5" d="M81.92,60c-.1.11-.21.21-.32.31l.31-.29Z"/><path class="cls-5" d="M75.67,95.22l.07,0-1.62-.83Z"/><path class="cls-5" d="M113.58,68.11c3,.08,6.12.25,9.15.39s6.07.22,9,.3l.78,0,4.31-3.18-12.12,1.23,4-2.51L108.31,68C110.06,68,111.82,68.06,113.58,68.11Z"/><path class="cls-5" d="M66.7,92c-.68-.33-1.38-.65-2.07-1-.29.12-.58.22-.87.35s-.76.35-1.15.53l-.14.07a72,72,0,0,1,7.44,5.68c1.31-.62,2.63-1.21,4-1.76L73,95.46Z"/><path class="cls-5" d="M76.63,66.87c.79.24,1.56.51,2.33.8.22.08.44.18.66.27s.71.27,1.06.43l4.57-3.06L78.81,67l1.8-4.06a50.74,50.74,0,0,1-4.3,3.47,2.58,2.58,0,0,1,0,.39Z"/><path class="cls-5" d="M83.05,69.5c3.92-.5,8.21-.92,12.75-1.16,1.3-.07,2.61-.12,3.94-.17l2.66-1.88-16.5,2-3.17,1Z"/><path class="cls-5" d="M66.75,99l-1.7-1,1.12,1.56c1-.55,2-1.08,3-1.59L63.68,95Z"/><path class="cls-5" d="M58.53,96.45l-1.68-1.4c-.3.19-.61.36-.9.55-2.19,1.44-4.55,3.81-3.65,6.27a2.59,2.59,0,0,0,.28.55.86.86,0,0,0,.1.16,3,3,0,0,0,.28.34.86.86,0,0,0,.13.14,3.13,3.13,0,0,0,.44.36,1.48,1.48,0,0,0,.21.13l.3.18.29.13.05,0a2.76,2.76,0,0,1,1.77-2.69c1.47-.44,2.92.67,4,1.73l.11.1c.6-.33,1.19-.69,1.78-1l1.38-.81C61.9,99.61,60.24,98,58.53,96.45Z"/><path class="cls-5" d="M71.88,119.12v0a2.5,2.5,0,0,1,.23.23Z"/><path class="cls-5" d="M83.8,110.53a1.55,1.55,0,0,1,.06-.23l-.29.08c-.38.12-.76.23-1.13.36-.59.2-1.17.43-1.75.65-.3.12-.61.22-.91.35-.88.36-1.74.75-2.6,1.17l-.61.32.12.13,6.44,7.49.43.51,4.74-1.31a.56.56,0,0,1,0-.08,2.46,2.46,0,0,1,2.82-.69c1.64-.42,3.29-.82,5-1.18a46.13,46.13,0,0,0-9.49-4.64C85.28,112.92,83.67,112,83.8,110.53Z"/><path class="cls-5" d="M75.74,114.2l-.29-.33a8.74,8.74,0,0,0-2.6,2.27l-.15.24c1.25,1.53,2.48,3.09,3.67,4.67.43.58.86,1.16,1.28,1.75a19.53,19.53,0,0,0,2.35-.46l2.48-.68-.12-.13Z"/><path class="cls-5" d="M95.44,108.3l-.45,0-1.53.11-1.34.14-1.45.19-1.41.23-1.37.26h0a11,11,0,0,1,2,1.57l7.46,7c.94-.19,1.88-.37,2.82-.52a57.46,57.46,0,0,1,7.63-.74c-.58-.43-1.17-.86-1.77-1.28C102.61,112.89,99,110.53,95.44,108.3Z"/><path class="cls-5" d="M145.15,69.19a113.39,113.39,0,0,1,17.78,1.66,43.66,43.66,0,0,1,9.29,2.87l1.39.66c.4.2.72.39,1,.54l.82.45-.83-.44c-.27-.14-.6-.33-1-.52l-1.4-.63a42.92,42.92,0,0,0-9.31-2.7c-7.23-1.35-17-1.38-27.6-1.49l-4,.17.29-.21c-2.93,0-5.9-.08-8.88-.16s-6.1-.23-9.14-.25c-4.23-.07-8.41,0-12.47.19l-4,.71.78-.55-2,.11c-3.8.25-7.41.62-10.78,1l.42.26c2.29-.14,5.17-.29,8.49-.25a68.64,68.64,0,0,1,11.76,1.21c8.42,1.53,17.48,4.63,26,7.44s16.26,5.94,21.9,8.33c2.82,1.19,5.1,2.21,6.68,2.92l2.47,1.12-2.49-1.06c-1.6-.68-3.91-1.64-6.75-2.76-5.68-2.26-13.52-5.15-22-7.83s-17.64-5.55-25.95-6.92a71.37,71.37,0,0,0-11.55-1c-2.37,0-4.52.09-6.4.2.67.47,1.33,1,2,1.48.55,0,1.11,0,1.66,0a2.58,2.58,0,0,1-1,.54c.63.53,1.23,1.08,1.82,1.65h0a42.57,42.57,0,0,1,4.62,5.23,2.75,2.75,0,0,1,.3-2.16c1-1.69,3.76-1.39,5.31-.74a3.27,3.27,0,0,1,2.26,2.81,2.61,2.61,0,0,1-1,1.88,4.41,4.41,0,0,1-2,.85,5.13,5.13,0,0,1-2.83-.19,3.05,3.05,0,0,1-.5-.28c.7,1.08,1.36,2.19,2,3.33a83.15,83.15,0,0,1,8.27,4.57l-7.31-2.67.4.82-.27-.07h0l-.2-.06c5.54,2.7,11.31,5.8,16.65,9,3.39,2,6.6,4.07,9.52,6a37.19,37.19,0,0,0,8.23,4.33,16.48,16.48,0,0,0,6.29.93,13.06,13.06,0,0,0,1.74-.23l.6-.14-.59.16a13.41,13.41,0,0,1-1.75.27,16.44,16.44,0,0,1-6.36-.77A37.09,37.09,0,0,1,127,104.7c-3-1.84-6.21-3.81-9.64-5.73-5.61-3.18-11.67-6.25-17.44-8.89l1.15.69L99.79,90c-1.2-.55-2.4-1.09-3.57-1.6l-1.41-.6A54.17,54.17,0,0,0,78,87.47h-.09l-.26,0a2.8,2.8,0,0,1,.93,1.58,2.34,2.34,0,0,1-1.06,2.4c-1.5.87-3.93-.36-4.6-1.83a2.13,2.13,0,0,1-.21-1.21l-.51.11-.47.13c-.79.21-1.59.42-2.37.66l-.69.23c-.7.22-1.39.45-2.08.7l3,1.62,8,2.63a52.63,52.63,0,0,1,7.61-2,46.26,46.26,0,0,1,5.51-.65,3.14,3.14,0,0,1,1.63-.7,5.89,5.89,0,0,1,3.14.71,34.5,34.5,0,0,1,14.16,3.81,23.54,23.54,0,0,1,6,4.5c4.8,2.69,9.58,5.42,14.39,8.12l-4.52-1.68A37.59,37.59,0,0,0,138,112.57l-10.85-3,8.84,4.63a42,42,0,0,1-15.13-6.82l7.55,5.71a77.52,77.52,0,0,1-7.5-4.19,27.36,27.36,0,0,1,.83,2.75A37.41,37.41,0,0,0,133,116.78c6.87,1.73,14.76.4,18.43-6.32a12.93,12.93,0,0,0,1.45-7.93,8.69,8.69,0,0,1-7.65,1.5,17.27,17.27,0,0,1-6.83-4.08c-2-1.78-3.8-3.78-5.84-5.51a29.7,29.7,0,0,0-18.2-7c-1.48,0-3.19-.07-4.14-1.21a3,3,0,0,1,.1-3.61,4.67,4.67,0,0,1,3.43-1.62,11.8,11.8,0,0,1,3.85.58c11.09,3.1,20.78,9.85,31.42,14.28a25.84,25.84,0,0,0,9.67,2.4,11.2,11.2,0,0,0,6.53-1.7c2-1.47,4-2.49,6.54-1.92-2.1-.72-3.54-2.64-4.75-4.5s-2.15-3.9-3.48-5.68a16.12,16.12,0,0,0-14.75-6.25,36.43,36.43,0,0,1-3.61.5,5,5,0,0,1-3.43-1,2.73,2.73,0,0,1-.77-3.28A4.07,4.07,0,0,1,144,73a28,28,0,0,1,16.62,2.65c2.91,1.46,5.74,3.48,9,3.56a15.79,15.79,0,0,0,5.06-1c1.92-.6,3.73-.79,5.65-1.39A10.75,10.75,0,0,1,175.78,73a30.4,30.4,0,0,0-3.84-4.67,10.73,10.73,0,0,0-1.16-.88l-.25-.16a10.59,10.59,0,0,0-1.14-.63l-.4-.18-.26-.12h-.08l-7.76-1.17h0l-1.4.09-.72.08h0l11.61,2.85Zm-13,16.32a245.16,245.16,0,0,0-33.08-11c5.7.46,11.17.82,16.77,2.19a83.11,83.11,0,0,1,8.5,2.55c1.73.62,3.85,1.94,5.81,2.71l2,.55a8.32,8.32,0,0,1-2-.55l-10.29-2.82ZM138,75.82a2.35,2.35,0,0,1-1.67,1.37,3.81,3.81,0,0,1-2.21-.19c-1.27-.46-3-2.13-1.82-3.56.79-1,3-1.07,4.12-.65A2.51,2.51,0,0,1,138,75.82Z"/><path class="cls-5" d="M110.44,110.12l-.38-.26c-1-.27-2.07-.52-3.11-.72l-.54-.11L106,109l1.24,1.15-1.6-1.21-1.21-.19-.84-.12q-.9-.1-1.83-.18l-1-.08c-.57,0-1.14-.06-1.71-.07l-1.16,0H97.3c3.11,2.06,6.21,4.23,9.13,6.44q1.26.94,2.46,1.89a36.66,36.66,0,0,1,10.93,1.55,66.43,66.43,0,0,1-8.64-8l-1-.26Z"/><path class="cls-5" d="M130,123.66a31.76,31.76,0,0,1,4.26,4.26,8.52,8.52,0,0,0,1.08-7.14c-1.24,2.13-3.92,2.34-6.32,1.8l-.64-.17c.5.36,1,.74,1.47,1.13Z"/><path class="cls-5" d="M103.51,138.88a27.34,27.34,0,0,0,5.08,1.83c.62.15,1.11.26,1.45.32l.51.09L110,141c-.34,0-.84-.14-1.47-.27a28.3,28.3,0,0,1-5.16-1.67l-1-.45-1.89-.21-1.2-.08a9.07,9.07,0,0,0-4.53.74,4.75,4.75,0,0,0-1.62,1.37,27.86,27.86,0,0,0,8.47,4.29,16.92,16.92,0,0,0,10.44-.15,12.84,12.84,0,0,0,4.33-2.7,64,64,0,0,0-13.24-3.18C103.31,138.78,103.41,138.84,103.51,138.88Z"/><path class="cls-5" d="M72.52,121.24a3.63,3.63,0,0,0,1.86,1.35c-.79-1.14-1.62-2.24-2.5-3.3A3.6,3.6,0,0,0,72.52,121.24Z"/><path class="cls-4" d="M74.12,94.36l1.62.83c.61-.23,1.23-.44,1.84-.64l-8-2.63,4.13,2.23Z"/><path class="cls-4" d="M110.22,109.91l-.16,0,.38.26Z"/><path class="cls-4" d="M106,109l-.36-.06,1.6,1.21Z"/><path class="cls-4" d="M101.1,90.77,100,90.08,99.79,90Z"/><path class="cls-4" d="M108.5,91.31a83.15,83.15,0,0,0-8.27-4.57c.33.63.65,1.26,1,1.9Z"/><path class="cls-4" d="M64.8,91l-.17.07c.69.32,1.39.64,2.07,1Z"/><path class="cls-4" d="M58.53,96.45,57.2,95.23,56.93,95l-.08,0Z"/><path class="cls-4" d="M61.08,92.65c-.52.26-1,.55-1.54.83s-.72.37-1.07.57l-.31.19c2.33,2,4.57,4.11,6.62,6.14.46-.26.93-.5,1.39-.75l-1.12-1.56,1.7,1L63.68,95,69.21,98c.24-.11.47-.23.7-.35A72,72,0,0,0,62.47,92C62,92.22,61.54,92.42,61.08,92.65Z"/><path class="cls-6" d="M83.05,69.5l.46.24.56.31c.35.19.69.39,1,.59,3.37-.42,7-.79,10.78-1l2-.11c1.07-.06,2.14-.12,3.23-.16,4.06-.18,8.24-.26,12.47-.19,3,0,6.09.16,9.14.25s6,.13,8.88.16h.18l3.52,0c10.58.11,20.37.14,27.6,1.49a42.92,42.92,0,0,1,9.31,2.7l1.4.63c.4.19.73.38,1,.52l.83.44-.82-.45c-.27-.15-.59-.34-1-.54l-1.39-.66a43.66,43.66,0,0,0-9.29-2.87,113.39,113.39,0,0,0-17.78-1.66c-4-.15-8.25-.24-12.59-.36l-.78,0c-3-.08-6-.17-9-.3s-6.1-.31-9.15-.39c-1.76,0-3.52-.07-5.27-.08-2.9,0-5.77,0-8.57.14-1.33,0-2.64.1-3.94.17C91.26,68.58,87,69,83.05,69.5Z"/><path class="cls-6" d="M65.6,90.67l-.8.32,1.9,1L73,95.46l.86.47c.6-.25,1.2-.48,1.8-.71l-1.55-.86-.4-.21-4.13-2.23-3-1.62h0C66.2,90.42,65.91,90.55,65.6,90.67Z"/><path class="cls-6" d="M97.3,108.26h-1l-.81,0c3.58,2.23,7.17,4.59,10.55,7,.6.42,1.19.85,1.77,1.28.38,0,.76,0,1.13,0q-1.2-.95-2.46-1.89C103.51,112.49,100.41,110.32,97.3,108.26Z"/><path class="cls-6" d="M76.69,113.36l-.12-.13c-.38.2-.76.41-1.12.64l.29.33,6.62,7.33.12.13,1.08-.3-.43-.51Z"/><path class="cls-6" d="M108.57,140.77c.63.13,1.13.23,1.47.27l.51.08L110,141c-.34-.06-.83-.17-1.45-.32a27.34,27.34,0,0,1-5.08-1.83c-.1,0-.2-.1-.3-.15l-.76-.08,1,.45A28.3,28.3,0,0,0,108.57,140.77Z"/><path class="cls-6" d="M58.16,94.24,56.93,95l.27.23,1.33,1.22c1.71,1.57,3.37,3.16,4.92,4.71.45-.26.88-.53,1.33-.78C62.73,98.35,60.49,96.25,58.16,94.24Z"/><path class="cls-6" d="M94.81,87.8l1.41.6c1.17.51,2.37,1,3.57,1.6l.16.08c5.77,2.64,11.83,5.71,17.44,8.89,3.43,1.92,6.67,3.89,9.64,5.73a37.09,37.09,0,0,0,8.42,4.15,16.44,16.44,0,0,0,6.36.77,13.41,13.41,0,0,0,1.75-.27l.59-.16-.6.14a13.06,13.06,0,0,1-1.74.23,16.48,16.48,0,0,1-6.29-.93,37.19,37.19,0,0,1-8.23-4.33c-2.92-1.91-6.13-4-9.52-6-5.34-3.19-11.11-6.29-16.65-9A52.72,52.72,0,0,0,94.81,87.8Z"/><path class="cls-6" d="M86.12,71.27c.5.32,1,.66,1.48,1,1.88-.11,4-.2,6.4-.2a71.37,71.37,0,0,1,11.55,1c8.31,1.37,17.41,4.28,26,6.92s16.36,5.57,22,7.83c2.84,1.12,5.15,2.08,6.75,2.76l2.49,1.06-2.47-1.12c-1.58-.71-3.86-1.73-6.68-2.92-5.64-2.39-13.41-5.46-21.9-8.33s-17.54-5.91-26-7.44A68.64,68.64,0,0,0,94,70.65c-3.32,0-6.2.11-8.49.25l.37.23Z"/><path class="cls-6" d="M80.74,68.39l.5.23.69.33c.27.12.54.24.8.38l3.17-1c3.44-1.1,7.54-2.38,12-3.64,3.65-1,7.56-2,11.56-2.78s8.11-1.26,12.1-1.81c2-.29,4-.6,5.83-1s3.69-.9,5.41-1.39a51.23,51.23,0,0,1,9.27-2.12,18.11,18.11,0,0,1,6.48.42,11.76,11.76,0,0,1,1.7.57l.58.25-.57-.27a13.39,13.39,0,0,0-1.69-.61,18.34,18.34,0,0,0-6.52-.59,51.53,51.53,0,0,0-9.38,1.89c-1.72.45-3.52.91-5.4,1.25s-3.82.62-5.81.85l-1.72.19c-3.44.39-7,.75-10.46,1.37l-.9.16c-3.74.67-7.39,1.51-10.81,2.4C90.74,65.25,84.8,67.13,80.74,68.39Z"/><path class="cls-6" d="M103.84,42.56a33.82,33.82,0,0,0-8.13,4.67C90.69,51,86.25,56,81.91,60l-.31.29-.36.34-.46.4a56.48,56.48,0,0,1-4.54,3.7,7.76,7.76,0,0,1,.07,1.67,50.74,50.74,0,0,0,4.3-3.47c.5-.45,1-.9,1.49-1.38,2.37-2.24,4.72-4.79,7.16-7.28a75.84,75.84,0,0,1,6.91-6.43A33.33,33.33,0,0,1,104,43a23.47,23.47,0,0,1,7.47-1.81h.56c.27-.08.53-.15.8-.21-.44,0-.89,0-1.37,0A24,24,0,0,0,103.84,42.56Z"/><path class="cls-6" d="M60.63,64.06c-.63.07-1.27.14-1.91.19l-.11.16,1,.53L60,65Q60.32,64.54,60.63,64.06Z"/><path class="cls-6" d="M67.71,51.2l-1.58,2.28c.54-.12,1.07-.25,1.6-.41.27-.43.54-.86.83-1.29,1.37-2.11,2.81-4.2,4.33-6.13a36.61,36.61,0,0,1,4.81-5.07,24.6,24.6,0,0,1,4.84-3.24,19.58,19.58,0,0,1,3.75-1.43c.46-.12.83-.2,1.08-.25l.38-.07-.39.06c-.25,0-.62.1-1.09.2a19.25,19.25,0,0,0-3.83,1.28,24.24,24.24,0,0,0-5,3.09c-.65.51-1.3,1.08-1.94,1.68a13.58,13.58,0,0,1-4,4.27C70.23,47.72,69,49.36,67.85,51Z"/><path class="cls-6" d="M56.59,68.37A1.72,1.72,0,0,0,56,68c-.74,1-1.53,2-2.35,2.93a2.12,2.12,0,0,0,.57.36c.84-.63,1.68-1.25,2.54-1.85l.25-.31A1.72,1.72,0,0,0,56.59,68.37Z"/><path class="cls-6" d="M59,64.9c-.23,0-.46-.09-.69-.12l-.07.1C58.53,64.88,58.78,64.88,59,64.9Z"/><path class="cls-6" d="M53.85,54.43a28.19,28.19,0,0,1,1.75-3.28l-.68.1A29.36,29.36,0,0,0,53,54.49Z"/><path class="cls-6" d="M49.57,67.59,51,66.88l.15-1.19.09-.79c-.43.07-.86.15-1.28.24l-.06.38C49.83,66.24,49.7,66.93,49.57,67.59Z"/><path class="cls-6" d="M44.37,77.62c.89-.46,1.76-.93,2.63-1.44l-1.32-.08C45.27,76.62,44.83,77.13,44.37,77.62Z"/><path class="cls-6" d="M35.42,76.74l-.51-.65-1.63.1c.48.78.92,1.39,1.23,1.83s.66.84,1,1.27c.48-.15,1-.31,1.46-.44-.45-.58-.89-1.18-1.29-1.72Z"/><path class="cls-4" d="M91.23,73.81c-.55,0-1.11,0-1.66,0l.71.59A2.58,2.58,0,0,0,91.23,73.81Z"/><path class="cls-4" d="M84.6,38.62a21.19,21.19,0,0,0-9.37,9,6.07,6.07,0,0,1,.65.59l2-1.27-1,2.73a5.93,5.93,0,0,1,.29.69l2.48-1.15L77.51,52a7.3,7.3,0,0,1,0,.81,7.8,7.8,0,0,1-.13,1L81.8,51l-3.2,3.87a10.38,10.38,0,0,1-1.26,1.79,26,26,0,0,0,4.36-2c.63-.49,1.25-1,1.88-1.5l-.41.63a73.26,73.26,0,0,0,8.15-6.27c4.35-3.7,8.81-7.52,14.21-9.41s12-1.47,16,2.57a21.06,21.06,0,0,0-8.73.26c-.27.06-.53.13-.8.21a21.37,21.37,0,0,0-9.72,5.76l6.88-1.55-2.06,2.17c.9-.37,1.79-.75,2.64-1.14a23.6,23.6,0,0,0-3.94,3,11.65,11.65,0,0,1,4.81-1.52h0a13.62,13.62,0,0,1,1.52-.65l.33-.11c.22-.08.44-.14.66-.2l.5-.13.57-.13c.35-.06.69-.11,1-.15l.41,0,.82,0h.37a11.48,11.48,0,0,1,1.17.07c2.75.3,8,2.23,8.48,5.59,0-3.16-.36-6.5-1.92-9.18a13.4,13.4,0,0,0-8-6.34,17.21,17.21,0,0,0-7.59.08c-7.63,1.52-12.92,6-18.9,10.59-1.88,1.44-6.52,3.6-7-.28-.35-2.75,3-6,5-7.38a14.3,14.3,0,0,1,12-2L99.48,37h0l-.44.28A21.11,21.11,0,0,0,84.6,38.62Z"/><path class="cls-3" d="M71,64c2.06-.36,4.39-2.34,6.22-3.4l-1.64,2c.07.15.15.29.21.44A33.17,33.17,0,0,0,89,50l-8.89,8.5c1-1.56,2.06-3.13,3.1-4.69l.41-.63c-.63.51-1.25,1-1.88,1.5-2.19,1.74-4.38,3.48-6.51,5.29C73.83,61.14,71.87,62.44,71,64Z"/><path class="cls-3" d="M76.24,56.68A11.15,11.15,0,0,1,74.37,59a9.86,9.86,0,0,0,3-2.3,10.38,10.38,0,0,0,1.26-1.79q.25-.45.48-1Z"/><path class="cls-4" d="M124.34,79.27a83.11,83.11,0,0,0-8.5-2.55c-5.6-1.37-11.07-1.73-16.77-2.19a245.16,245.16,0,0,1,33.08,11l-12.29-6.35L130.15,82C128.19,81.21,126.07,79.89,124.34,79.27Z"/><path class="cls-4" d="M130.15,82a8.32,8.32,0,0,0,2,.55Z"/><path class="cls-3" d="M71.88,119.14v.15c.88,1.06,1.71,2.16,2.5,3.3a6.35,6.35,0,0,0,.78.19q-1.48-1.77-3-3.41A2.5,2.5,0,0,0,71.88,119.14Z"/><path class="cls-4" d="M120.93,108.87a77.52,77.52,0,0,0,7.5,4.19l-7.55-5.71A42,42,0,0,0,136,114.17l-8.84-4.63,10.85,3a37.59,37.59,0,0,1-12.55-5.92l4.52,1.68c-4.81-2.7-9.59-5.43-14.39-8.12A24.19,24.19,0,0,1,120.93,108.87Z"/><path class="cls-2" d="M47.39,55.48l2.1-3.43c-.91.16-1.82.34-2.72.55-.31,1.14-.63,2.29-1,3.44C46.34,55.83,46.86,55.64,47.39,55.48Z"/><path class="cls-2" d="M43.82,57a1.4,1.4,0,0,0,.17-.09q1.34-2.14,2.65-4.3L45.2,53a20.91,20.91,0,0,0-1.72,4.21Z"/><path class="cls-2" d="M49,55.06a23.85,23.85,0,0,1,1.87-3.23l-1.34.22-.9,3.11Z"/><path class="cls-2" d="M90.92,59.25c-1,.88-2.08,1.75-3.11,2.64l5.62-3.5,4.44-2.77-2.21,2.21L92,61.46l6.42-3.73,1.71-1-.81,1.1L98,59.68l2.79-1.16-.29.85a9.51,9.51,0,0,0,3.15.07A9.69,9.69,0,0,0,108,57.75a7.67,7.67,0,0,0-6,.56L105.33,55l-2-.67.48-1.28-1.49.44a24.07,24.07,0,0,1,3.52-4.09,23.6,23.6,0,0,1,3.94-3c-.85.39-1.74.77-2.64,1.14-3,1.26-6.09,2.54-8.34,4.74C96.3,54.73,93.6,57,90.92,59.25Z"/><path class="cls-2" d="M138.57,52.59a17.91,17.91,0,0,0-5.4,2,49.56,49.56,0,0,1,8.43-1.53A16.14,16.14,0,0,1,150,54.52L146,52.23a17.34,17.34,0,0,0,3.92,1.22c-3.8-3.63-10.56-2.83-14.79-.4Z"/><path class="cls-2" d="M136.53,58.57s-5.92,1.36-7.38,1.58q-2.66.42-5.29.91-5.28,1-10.48,2.3c-2,.51-4,1-5.92,1.61l6.48-.92-6.86,2.31a270.11,270.11,0,0,1,28.57-4.59l-10.79-.29,5.69-.82C131.5,60.52,136.53,58.57,136.53,58.57Z"/><path class="cls-4" d="M64.29,65.8a12.56,12.56,0,0,0,.95-2.45c-.79.17-1.59.31-2.39.43-.34.5-.66,1-1,1.51Z"/><path class="cls-2" d="M3.57,79.85l0,0a6,6,0,0,0,6.8.31l0-.12-4.09-.84L10,78.08V78a10.34,10.34,0,0,1-1.5,0,19.36,19.36,0,0,1-2-.31,5.69,5.69,0,0,1-1.31-.46A3.78,3.78,0,0,1,4,76.33a7,7,0,0,1-1.26-2c-.25-.55-.39-.9-.39-.9l.52.82A7.47,7.47,0,0,0,4.37,76a4.32,4.32,0,0,0,2.27.84c.63.07,1.21.1,1.66.13L5.23,75.67c2.62.93,5.62-2.22,4.57-4.79A20.65,20.65,0,0,0,8.49,64c-.52-.64-1-1.29-1.53-2A18.27,18.27,0,0,1,5.2,58.71a18.74,18.74,0,0,1-1.46-8.08c0-.46,0-.72,0-.72v.73a19.17,19.17,0,0,0,.14,1.94,19,19,0,0,0,1.73,5.93c.11.22.24.43.36.65l5.51,5.38-.27-9.48c-.05-.21-.1-.41-.16-.63-.1-.42-.21-.87-.32-1.3A17,17,0,0,1,10.46,58c-.43-1.83-.86-3.67-1.3-5.5L9,54.11Q8.37,53,7.78,51.83l0-.1c.63,2.11,1,3.76.59,4.6-.87,1.74-3.85-7.74-3.63-12.67A17.12,17.12,0,0,0,0,51.31v9a17.85,17.85,0,0,0,4.68,8,4.69,4.69,0,0,1,1.48,2c.22.8-.29,1.85-1.11,1.82-.6,0-1-.56-1.35-1.07a13.25,13.25,0,0,1-1.91-6A11.93,11.93,0,0,0,0,70.5v2.17A11.23,11.23,0,0,0,1.29,77,11.37,11.37,0,0,0,3.57,79.85ZM4,64.75,1.25,60.46c.44,1.48.87,2.95,1.31,4.42A14.6,14.6,0,0,1,2,49.29c-.26,1.73-.53,3.46-.79,5.19.1-.67.46-2.74,1.05-3-.12,4,.2,7.61,2.28,11.13C3.78,61.41,3,60.22,2.29,59Q3.14,61.89,4,64.75Z"/><path class="cls-2" d="M41.9,12.45c.23-.32.47-.63.72-.92C42.37,11.82,42.13,12.13,41.9,12.45Z"/><path class="cls-2" d="M8.7,82.71l-.31-.08Z"/><path class="cls-2" d="M27,36.09l-.27,1.29a5.32,5.32,0,0,1,.45-.38Z"/><path class="cls-2" d="M27.69,25.74a.36.36,0,0,0,0,.09A.36.36,0,0,1,27.69,25.74Z"/><path class="cls-2" d="M42.87,11.24a10.42,10.42,0,0,1,1.08-1A10.42,10.42,0,0,0,42.87,11.24Z"/><path class="cls-2" d="M25.89,30a15.39,15.39,0,0,0,.46,3.57c.14-.31.29-.62.44-.93l.42.8,1.21-.69.19,3.11A5,5,0,0,1,31,32.67a6.56,6.56,0,0,1-1.08,2.89,9.05,9.05,0,0,0,2.92-1.65c.11-.17.19-.34.3-.5,1.23-2,2.62-3.91,3.95-5.78A25.81,25.81,0,0,0,38,24.94c1.15-4.14,1.72-8.57,3.79-12.28A26,26,0,0,0,39,18.53c-.83,2.33-1.63,5.11-3.13,7.09a17,17,0,0,1-6.13,4.95,2.21,2.21,0,0,1-2.13.18A2.08,2.08,0,0,1,27,28.88a8.94,8.94,0,0,1,.3-1.91h0A7.72,7.72,0,0,0,25.89,30Z"/><path class="cls-2" d="M5.88,81.55l-.43-.25Z"/><path class="cls-2" d="M9.78,83l.34,0L10,83Z"/><path class="cls-2" d="M15.29,62.12l.86-.8-.78-2.71C15.34,59.78,15.32,61,15.29,62.12Z"/><path class="cls-2" d="M25.44,36.72l-.59,3.43a7.38,7.38,0,0,1,.71-1.33Z"/><path class="cls-2" d="M28.26,24.64l0,0Z"/><path class="cls-2" d="M29.06,23.53l-.17.21Z"/><path class="cls-2" d="M7.59,46.45c0-1.53,0-3.05,0-4.58q1,5.75,1.9,11.49l.43-3.83C9.53,48,9.2,46.33,9,44.75A23.78,23.78,0,0,1,8.78,40a16.34,16.34,0,0,1,.7-3.86,12.84,12.84,0,0,1,1.06-2.46c.16-.27.29-.49.38-.62l.14-.22-.13.22c-.09.14-.2.36-.35.64a12.82,12.82,0,0,0-.95,2.49,16.57,16.57,0,0,0-.54,3.83,24.19,24.19,0,0,0,.39,4.61c.27,1.61.68,3.24,1.11,4.85s.89,3.2,1.31,4.69c.86,3,1.54,5.64,1.89,7.35,0,.12,0,.24.07.36.15.41.29.82.44,1.24.27-.31.56-.61.85-.9l-.69-3a11,11,0,0,1-.6-2.86c.06-1,.54-.85,1-.17A8.44,8.44,0,0,1,16,58.82a6.81,6.81,0,0,1,.23,1.35c0,.33-.05.78,0,1.13.55-.48,1.13-.92,1.73-1.35a12.06,12.06,0,0,0-.54-5.75c.67.89,1.34,1.77,2,2.66.27-1.09.6-2.49.84-4.12,0-.25.07-.51.1-.77.08-1.47.17-2.94.25-4.41v-.41c0-.1,0-.22,0-.33s0-.19,0-.29v0c-.07-3.93-.57-8.31-.22-12.46A22.61,22.61,0,0,1,21.62,28a15.81,15.81,0,0,1,2.58-4.48c.21-.25.41-.46.62-.67a13.87,13.87,0,0,1,3.72-4.44c-3.78.22-6.92,3.3-8.36,6.8s-1.53,7.4-1.62,11.19a49.71,49.71,0,0,1-.5,6.8c.31,1.2.63,2.4,1,3.6q-.15-4.06-.28-8.15a22,22,0,0,1,.46,13.05l-.39-2.55c-.28,1.37-.33,3.4-1.06,4.57a11.28,11.28,0,0,1-.16-3.85c0-1.86.15-3.71.26-5.56a17.83,17.83,0,0,1-.94,3,6.89,6.89,0,0,1-.39,3.16l-.21-5.24q.15.34.27.66l-.51-3.29-.89,5.2c-.32-1.65-.65-3.3-1-5-.23.73-.45,1.46-.67,2.19-.41-.78-.81-1.56-1.22-2.33l-.45,2.62a13.87,13.87,0,0,1,5-17.33l.05-.33A12.68,12.68,0,0,0,9,31.06,22.36,22.36,0,0,0,7.59,46.45Zm6,.93a1.84,1.84,0,0,1,1.51,1,5.24,5.24,0,0,1,.53,1.78c.16,1,.2,2.37-1,2.78a2.08,2.08,0,0,1-2.27-.68C11.51,51,11.53,47.39,13.6,47.38Z"/><path class="cls-2" d="M7.13,82.18,6.73,82Z"/><path class="cls-2" d="M21.92,28.11a22.19,22.19,0,0,0-1.09,6A48.65,48.65,0,0,0,21,40.38q.18-3.41.38-6.82l2.82,8.21c.07-2.33.15-4.66.05-7a17.14,17.14,0,0,1,1.35-6.21l-.17-2q-1.12,2-2.27,4.08a14.18,14.18,0,0,1,1.45-7.35c-.09.1-.17.18-.25.28A15.85,15.85,0,0,0,21.92,28.11Z"/><path class="cls-2" d="M7,60.78c-.22-.37-.45-.74-.69-1.1C6.51,60.06,6.74,60.42,7,60.78Z"/><path class="cls-2" d="M4.39,80.58l-.32-.28Z"/><path class="cls-3" d="M9,54.11l.12-1.6c.44,1.83.87,3.67,1.3,5.5a17,17,0,0,0,.31-4.88c-.28-1.12-.57-2.27-.84-3.44l0-.16-.43,3.83q-.95-5.74-1.9-11.49c0,1.53,0,3.05,0,4.58A22.36,22.36,0,0,1,9,31.06v0A13.62,13.62,0,0,0,7.65,32.4,12.93,12.93,0,0,0,5.26,43.05a81.54,81.54,0,0,0,2.48,8.68l0,.1Q8.37,53,9,54.11Z"/><path class="cls-4" d="M10.28,83c.33,0,.68.06,1,.07h0C11,83.09,10.61,83.07,10.28,83Z"/><path class="cls-4" d="M47.22,26.21l0,.23,1.69-2.05L47.3,26.12Z"/><path class="cls-4" d="M7,60.78c.18.26.34.54.53.79.72,1,1.54,1.83,2.29,2.69a22,22,0,0,1,2,2.51,17.79,17.79,0,0,1,1.54-2.4c-.15-.9-.32-1.78-.49-2.61-.32-1.56-.87-3.95-1.57-6.7l.27,9.48L6,59.16c.09.17.18.35.28.52C6.53,60,6.76,60.41,7,60.78Z"/><path class="cls-4" d="M20.31,52a35.57,35.57,0,0,0,.25-4.41C20.48,49,20.39,50.5,20.31,52Z"/><path class="cls-4" d="M58,9.76l4-3.32A12.35,12.35,0,0,0,58,9.76Z"/><path class="cls-4" d="M62.21,6.33l.26-.11Z"/><path class="cls-4" d="M9.92,77.08A22.63,22.63,0,0,1,10,72.42c0-.36.1-.71.16-1.06a16.34,16.34,0,0,1,1.11-3.56c-.09-.17-.19-.35-.3-.53A23.2,23.2,0,0,0,9.16,64.8c-.22-.27-.44-.55-.67-.82a20.65,20.65,0,0,1,1.31,6.9c1,2.57-2,5.72-4.57,4.79L8.3,76.94l.32,0Z"/><path class="cls-4" d="M14.3,63.16c-.15-.42-.29-.83-.44-1.24.09.46.18.95.27,1.44A1.63,1.63,0,0,1,14.3,63.16Z"/><path class="cls-4" d="M28.45,37.09l-.29-.52-.66,1.89c-.1-.49-.2-1-.31-1.46a5.32,5.32,0,0,0-.45.38l-1,4.82c-.07-1.13-.13-2.25-.19-3.38a7.38,7.38,0,0,0-.71,1.33l-.75,4.32c0-.9,0-1.8.06-2.7l-2.82-8.21Q21.15,37,21,40.38c.16,2.3.37,4.59.44,6.76,0,.45,0,.9,0,1.34l1.21,2.68,2-3.91c-.18,1.23-.35,2.46-.52,3.69,1.17-2.56,2.88-6.37,5.05-10.61,1.08-2.09,2.29-4.27,3.61-6.42a9.05,9.05,0,0,1-2.92,1.65A6.49,6.49,0,0,1,28.45,37.09Z"/><path class="cls-4" d="M8.56,82.33a1.74,1.74,0,0,0,2.15-1c-.06-.18-.12-.37-.17-.56s-.09-.41-.14-.62a6,6,0,0,1-6.8-.31l0,0v0c.16.15.33.29.51.43l.32.28a12.36,12.36,0,0,0,1.06.72l.43.25c.28.16.56.31.85.44l.4.19q.62.25,1.26.45l.31.08.15,0Z"/><path class="cls-4" d="M9,82.78c.26.07.53.12.8.17L10,83A9.35,9.35,0,0,1,9,82.78Z"/><path class="cls-4" d="M37.05,27.63c.22-.31.45-.62.66-.93.77-1.09,1.49-2.17,2.15-3.26s1.23-2.16,1.77-3.22a33.93,33.93,0,0,1,3.21-5.47,12,12,0,0,1,3.17-3,8.51,8.51,0,0,1,1.05-.57l.38-.16-.38.17a8.64,8.64,0,0,0-1,.59,12.19,12.19,0,0,0-3.07,3,34.33,34.33,0,0,0-3.05,5.52c-.51,1.07-1.06,2.18-1.7,3.29S38.86,25.87,38.12,27c-1.48,2.21-3.07,4.45-4.44,6.78s-2.63,4.69-3.74,6.94c-1.35,2.77-2.53,5.37-3.51,7.55l6.29-9-.25,2.15c1.19-1.43,2.43-2.87,3.72-4.3L43.43,25.3l-.54,3.11,4.74-6.54-.33,3.54c2-2.09,3.89-4.14,5.73-6.06L63.66,6.41l-6.54,4.48c-1.61,2.24-2.89,4.72-4.73,6.78a4.33,4.33,0,0,1-1.32,1.09,1.57,1.57,0,0,1-2.36-1.52,4.25,4.25,0,0,1,.46-1.65,14.27,14.27,0,0,1,8.25-7.48A34.12,34.12,0,0,0,50.5,7.8,12.38,12.38,0,0,0,44,10.22a10.42,10.42,0,0,0-1.08,1l-.25.29c-.25.29-.49.6-.72.92l-.12.15,0,.06C39.68,16.37,39.11,20.8,38,24.94A25.81,25.81,0,0,1,37.05,27.63Zm-2.23,9.29,1.89-4.42q-1.2,1.81-2.41,3.61c.59-1.22,1.2-2.43,1.82-3.63,1.1-2.11,2.27-4.17,3.49-6.2.62-1,1.25-2,1.89-3C42,22.44,44,18.91,44,18.91s-1.26,3.35-1.61,3.88c-.7,1.06-1.4,2.12-2.11,3.18,1.64-1.74,3.28-3.47,4.91-5.21A180.77,180.77,0,0,0,34.82,36.92Zm5.83-19.77C41.31,14,43.9,10.29,47.37,10A11.81,11.81,0,0,1,45,11.42l2.87-.94A10.83,10.83,0,0,0,43.49,14a32.68,32.68,0,0,0-3,4.84,11.72,11.72,0,0,1,1.41-3.55Z"/><path class="cls-4" d="M32.22,43.49l1.42-2.3c-.46.56-.9,1.11-1.34,1.67Z"/><path class="cls-4" d="M63.29,5.93l.19,0Z"/><path class="cls-4" d="M6.28,79.17l4.09.84c-.14-.63-.25-1.27-.34-1.93Z"/><path class="cls-4" d="M19.36,56.91v0c-.66-.89-1.33-1.77-2-2.66A12.06,12.06,0,0,1,17.91,60l.76-.51C18.92,58.58,19.16,57.73,19.36,56.91Z"/><path class="cls-5" d="M20.54,46.53c0,.1,0,.2,0,.29v-.29Z"/><path class="cls-5" d="M11.33,82.94c-.23-.53-.44-1.08-.62-1.63a1.74,1.74,0,0,1-2.15,1l.29.42h0l.12,0a9.35,9.35,0,0,0,1,.2l.11,0,.16,0c.33,0,.68.06,1,.07Z"/><path class="cls-5" d="M23.91,51.43c.07-.15.15-.33.23-.49.17-1.23.34-2.46.52-3.69l-2,3.91-1.21-2.68a31.54,31.54,0,0,1-.27,4.39,38.44,38.44,0,0,1-.83,4.28c-.13.52-.27,1-.42,1.57l.78-.41.7-1.25C22.25,55.11,23.11,53.2,23.91,51.43Z"/><path class="cls-5" d="M30.82,43.37c.54-.67,1.09-1.35,1.65-2l.25-2.15-6.29,9Q25.76,49.78,25.2,51C26.82,48.61,28.69,46,30.82,43.37Z"/><path class="cls-5" d="M13.16,88a14.77,14.77,0,0,0-1.34-4l0,.1A21.46,21.46,0,0,0,13.16,88Z"/><path class="cls-5" d="M53,19.35a75.71,75.71,0,0,1,8.69-8.06A28.36,28.36,0,0,1,67.24,8l.94-.4c.27-.11.52-.18.71-.25l.58-.21-.58.22c-.19.07-.43.15-.7.27L67.26,8a28.42,28.42,0,0,0-5.45,3.41c-3.86,3-8.2,7.8-12.92,13L47.2,26.44l0-.23c-1.31,1.43-2.64,2.88-4,4.32s-2.81,2.92-4.16,4.41c-1.9,2.06-3.71,4.16-5.42,6.25l-1.42,2.3.08-.63c-.28.34-.56.69-.82,1-2.28,2.91-4.27,5.74-5.94,8.31.61-.82,1.22-1.62,1.82-2.38,1-1.23,2.22-2.82,3.81-4.55A46.78,46.78,0,0,1,37,40a132.26,132.26,0,0,1,15.15-9.54c5.17-2.93,10.13-5.42,13.8-7.15,1.83-.87,3.34-1.55,4.39-2l1.64-.72-1.62.76c-1,.49-2.53,1.21-4.35,2.12-3.62,1.81-8.52,4.4-13.61,7.44s-10.53,6.26-14.88,9.77a46.61,46.61,0,0,0-5.61,5.26c-1.53,1.72-2.77,3.3-3.73,4.53-1.65,2.1-3.42,4.43-5.09,6.86.41-.14.82-.27,1.24-.39l.14,0a58,58,0,0,1,7.07-8.81c.11,1-2.21,4.05-3.08,4.7l5-4-6.06,7.47.55-.08.31,0c.56-.07,1.13-.13,1.7-.17h.08l.29,0a18.54,18.54,0,0,1,7.31-5.44c-.61.5-1.3,1.13-1.9,1.64a74.92,74.92,0,0,1,12-4.83l-9.31,5q1-.49,2.1-1a151.44,151.44,0,0,1,14.77-5.51c2.49-.79,4.93-1.46,7.16-2.06a24.72,24.72,0,0,0,5.78-2.16,11,11,0,0,0,3.24-2.7,8.59,8.59,0,0,0,.65-1l.2-.36-.19.36a8.11,8.11,0,0,1-.63,1,11.07,11.07,0,0,1-3.19,2.8A25.1,25.1,0,0,1,62.6,44c-2.23.66-4.63,1.39-7.1,2.23-4.09,1.39-8.32,3.05-12.21,4.75l1-.31c-.33.09-.65.21-1,.31-.8.35-1.59.7-2.36,1.06a50.08,50.08,0,0,0-6,3.15l-1,.69c.56,0,1.12.07,1.68.13h0c.62.07,1.24.15,1.85.24h0c.93.14,1.85.32,2.76.52a2.06,2.06,0,0,1,.33-1.58,4.61,4.61,0,0,1,2.29-1.45c.46-.17.93-.32,1.4-.46q.46-.15.93-.27l1.44-.38.13,0c.9-.21,1.81-.39,2.72-.55h0l1.34-.22c1.36-.22,2.72-.4,4.07-.58l.68-.1q.85-.1,1.71-.24c1-.14,2-.31,3-.49,1.23-.24,2.46-.51,3.66-.85A27.45,27.45,0,0,0,68.22,48a21.74,21.74,0,0,0,3-1.66l.29-.21a13.58,13.58,0,0,0,4-4.27A9.1,9.1,0,0,0,76.71,37a8.51,8.51,0,0,0-.49-2.57c0-.12-.11-.23-.16-.35a8.5,8.5,0,0,0-3.12-3.86A5.78,5.78,0,0,1,70.3,34.7a11.51,11.51,0,0,1-5,1.58c-1.77.2-3.55.2-5.31.45a19.75,19.75,0,0,0-11.48,5.93c-.68.71-1.44,1.54-2.42,1.51a2,2,0,0,1-1.75-1.64A3.12,3.12,0,0,1,45,40.11a7.84,7.84,0,0,1,2-1.64c6.44-4.12,14.06-5.93,20.95-9.23a17.18,17.18,0,0,0,5.46-3.72,7.41,7.41,0,0,0,2-4,5.15,5.15,0,0,1,1.94-4.08,6.76,6.76,0,0,1-4.32.36c-1.46-.23-2.88-.66-4.35-.8a10.71,10.71,0,0,0-9.6,4.54c-.46.66-.83,1.38-1.35,2a3.29,3.29,0,0,1-2,1.26,1.8,1.8,0,0,1-2-1.07,2.69,2.69,0,0,1,.59-2.21,18.62,18.62,0,0,1,8.65-7c2-.79,4.26-1.3,5.74-2.87a10.48,10.48,0,0,0,1.74-2.94c.56-1.21,1.26-2.2,1.81-3.41a7.07,7.07,0,0,1-3.92.58,19.86,19.86,0,0,0-4-.17,5.92,5.92,0,0,0-1,.19l-.19,0a6.15,6.15,0,0,0-.82.29l-.26.11L62,6.41l0,0L58,9.76h0c-.2.24-.39.48-.58.73l-.28.39h0l6.54-4.48ZM49.42,50.87,57,48.49l-7.32,1.14C55,47.73,60.34,46,65.7,44.13l-2.83,1.49A25,25,0,0,0,71.34,42l-6.29,4,6.2-2.33A27.94,27.94,0,0,1,61.19,48.2L67.35,47A52.64,52.64,0,0,1,49.42,50.87Zm-8.36-3.49a3.38,3.38,0,0,1-1.35,1.3,2.21,2.21,0,0,1-3-1.18c-.37-1.26,1-2.47,2-3a2.18,2.18,0,0,1,2.38.13A1.72,1.72,0,0,1,41.52,46,3,3,0,0,1,41.06,47.38Zm-5.74-2.89a70.66,70.66,0,0,1,8.49-7.33,58.67,58.67,0,0,1,5-3.08c1.07-.58,2.66-1,3.91-1.67l1.16-.75a6,6,0,0,1-1.16.75L46.8,36.25,55.37,33A162,162,0,0,0,35.32,44.49ZM53.1,27.24a2.55,2.55,0,0,1-1.07,1c-.79.42-2.37.52-2.57-.67A2.9,2.9,0,0,1,51,25.25a1.68,1.68,0,0,1,2.2.55A1.56,1.56,0,0,1,53.1,27.24Z"/><path class="cls-5" d="M42.79,30.12c1.41-1.44,2.79-2.9,4.15-4.34l.36-.37.33-3.54-4.74,6.54.54-3.11L36.19,37.05c.78-.87,1.57-1.72,2.37-2.57C39.94,33,41.39,31.56,42.79,30.12Z"/><path class="cls-5" d="M30.91,55.84h.82l1.84-1.78C32.71,54.64,31.81,55.24,30.91,55.84Z"/><path class="cls-5" d="M58.83,68.09l.32-.19c.36-.2.72-.38,1.09-.56l.36-.19c.48-.22,1-.43,1.49-.61a17.27,17.27,0,0,1,2.54-.67l-.34-.07-2.41-.51c-.62-.12-1.25-.23-1.88-.3l-.34,0,.2.1c-.27-.06-.55-.09-.82-.14s-.51,0-.76,0-.21,0-.31,0a12.65,12.65,0,0,0-2.53.36,19.73,19.73,0,0,0-2.75.92c-.56.23-1.11.47-1.65.73l-1.47.71-.49.25a4.27,4.27,0,0,1-1.68.49,1.29,1.29,0,0,1-1-.39,1.44,1.44,0,0,1,0-1.75c-.8.29-1.59.59-2.36.93a54.21,54.21,0,0,0-8.61,5l5.36.58c1.22,0,2.51,0,3.85,0l6.56.13h.9c.71-.52,1.41-1,2.11-1.58a2.12,2.12,0,0,1-.57-.36,1.7,1.7,0,0,1-.57-1C52.82,68.35,54.7,67.49,56,68a1.56,1.56,0,0,1,1,1.13s0,.08,0,.12l.51-.34.19-.13C58.09,68.53,58.46,68.3,58.83,68.09Z"/><path class="cls-5" d="M55.27,64.55a24.2,24.2,0,0,0-4,.35l1.45-.13Z"/><path class="cls-5" d="M76.27,66.77a2.58,2.58,0,0,0,0-.39,7.76,7.76,0,0,0-.07-1.67.2.2,0,0,0,0-.07,7.25,7.25,0,0,0-.43-1.58c-.06-.15-.14-.29-.21-.44s-.13-.29-.21-.42a12.24,12.24,0,0,1-4.16,3.5A31.93,31.93,0,0,1,76.27,66.77Z"/><path class="cls-5" d="M66.13,53.48c-.75.16-1.52.29-2.29.39l-.34,0-.27,0-.54.06-.65,0L61,54.13c-.88,0-1.75.09-2.61.11h-.2c-1.42,0-2.87.09-4.31.18l-.82.06a30.14,30.14,0,0,0-4.05.57l-.37.1c-.41.09-.82.2-1.22.32s-1,.35-1.57.56a15.33,15.33,0,0,0-1.83.88,1.4,1.4,0,0,1-.17.09l-.34.2c-.17.09-.34.19-.51.27.55.17,1.11.33,1.65.52a35.89,35.89,0,0,1,13.32-3.41L49.51,56.8l7-.62A50.65,50.65,0,0,0,47,58.85c.45.17.89.36,1.33.54L51,58.65l-2.37.87c.68.29,1.36.59,2,.9,2.58-.68,5.23-1.32,7.82-1.82,2.36-.48,4.66-.83,6.76-1.22A42.41,42.41,0,0,0,70.74,56a9.81,9.81,0,0,0,2-.94A5.24,5.24,0,0,0,74,54a3.81,3.81,0,0,0,.52-.93l.11-.36s0,.12-.1.36a3.55,3.55,0,0,1-.5,1,5,5,0,0,1-1.24,1.15,9.1,9.1,0,0,1-2,1,40.64,40.64,0,0,1-5.53,1.53c-2.09.45-4.38.86-6.72,1.39s-4.65,1.13-7,1.79c2.28,1.08,4.54,2.25,6.8,3.41l.34,0c.64,0,1.28-.12,1.91-.19s1.48-.17,2.22-.28,1.6-.26,2.39-.43c.4-.09.8-.16,1.19-.26A18.05,18.05,0,0,0,74.35,59l0,0a11.15,11.15,0,0,0,1.87-2.3,8.5,8.5,0,0,0,1.16-2.91,7.8,7.8,0,0,0,.13-1,7.3,7.3,0,0,0,0-.81,6.37,6.37,0,0,0-.35-1.67,5.93,5.93,0,0,0-.29-.69,5.57,5.57,0,0,0-1.64-2.05,4.82,4.82,0,0,0-1-.6c.5,1.55-.58,3-1.91,3.92a15.22,15.22,0,0,1-4.59,2.17C67.2,53.23,66.67,53.36,66.13,53.48Z"/><path class="cls-5" d="M44.63,73.55c-4.17,0-7.82.11-10.13.23l-1.58.08c-.88.63-1.75,1.27-2.62,1.91A8.84,8.84,0,0,0,27.89,78a3,3,0,0,0-.21,3.16,2.36,2.36,0,0,0,.93.85h0a6.16,6.16,0,0,0,4,0,57.2,57.2,0,0,0,11.53-4.39A36.94,36.94,0,0,0,37,78.85c-.49.13-1,.29-1.46.44l-.38.11-.44.13a14.06,14.06,0,0,1-1.89.55,2.93,2.93,0,0,1-.41.07,3.13,3.13,0,0,1-2.27-.53,1.85,1.85,0,0,1-.62-2.13c.43-.92,1.62-1.14,2.64-1.23l1.1-.07,1.63-.1.28,0a96.6,96.6,0,0,1,10.49,0l1.32.08c1.42-.82,2.81-1.72,4.15-2.66Z"/><path class="cls-4" d="M48.28,59.39l.31.13L51,58.65Z"/><path class="cls-4" d="M56.53,56.18l-7,.62,8.43-2.21A35.89,35.89,0,0,0,44.62,58c.79.26,1.56.54,2.33.85A50.65,50.65,0,0,1,56.53,56.18Z"/><path class="cls-4" d="M44.25,50.66l-1,.31h0C43.6,50.87,43.92,50.75,44.25,50.66Z"/><path class="cls-4" d="M33.57,54.05l-1.84,1.78h.59c.63-.47,1.33-1,2.11-1.44a39,39,0,0,1,4-2.16l9.31-5a74.92,74.92,0,0,0-12,4.83c.6-.51,1.29-1.14,1.9-1.64a18.54,18.54,0,0,0-7.31,5.44l.57,0C31.81,55.24,32.71,54.64,33.57,54.05Z"/><path class="cls-4" d="M40.78,72.67l-5.36-.58-1,.7h0C36,72.71,38.24,72.67,40.78,72.67Z"/><path class="cls-6" d="M25.2,51l-.38.83-1.66,3.64c.79-1.13,1.58-2.23,2.38-3.28,1.67-2.57,3.66-5.4,5.94-8.31.26-.34.54-.69.82-1,.44-.56.88-1.11,1.34-1.67,1.71-2.09,3.52-4.19,5.42-6.25,1.35-1.49,2.77-2.94,4.16-4.41s2.69-2.89,4-4.32l.08-.09,1.59-1.73c4.72-5.18,9.06-10,12.92-13A28.42,28.42,0,0,1,67.26,8l.93-.41c.27-.12.51-.2.7-.27l.58-.22-.58.21c-.19.07-.44.14-.71.25l-.94.4a28.36,28.36,0,0,0-5.52,3.33A75.71,75.71,0,0,0,53,19.35c-1.84,1.92-3.76,4-5.73,6.06l-.36.37c-1.36,1.44-2.74,2.9-4.15,4.34S39.94,33,38.56,34.48c-.8.85-1.59,1.7-2.37,2.57-1.29,1.43-2.53,2.87-3.72,4.3-.56.67-1.11,1.35-1.65,2C28.69,46,26.82,48.61,25.2,51Z"/><path class="cls-6" d="M20.68,58.31l.19-.09.51-1.16Z"/><path class="cls-6" d="M11.82,84c-.17-.36-.33-.72-.49-1.09l0,.16h0l-.12.53A69.3,69.3,0,0,0,10,93.78V94l.28-.14h0l.07,0,0,0a85.75,85.75,0,0,1,1.46-9.67Z"/><path class="cls-6" d="M58.54,59.08c2.34-.53,4.63-.94,6.72-1.39a40.64,40.64,0,0,0,5.53-1.53,9.1,9.1,0,0,0,2-1A5,5,0,0,0,74,54a3.55,3.55,0,0,0,.5-1c.07-.24.1-.36.1-.36l-.11.36A3.81,3.81,0,0,1,74,54a5.24,5.24,0,0,1-1.26,1.11,9.81,9.81,0,0,1-2,.94,42.41,42.41,0,0,1-5.54,1.36c-2.1.39-4.4.74-6.76,1.22-2.59.5-5.24,1.14-7.82,1.82l1,.45C53.89,60.21,56.24,59.6,58.54,59.08Z"/><path class="cls-6" d="M51.19,72.84l-6.56-.13c-1.34,0-2.63,0-3.85,0-2.54,0-4.75,0-6.33.11h0l-1.5,1.07,1.58-.08c2.31-.12,6-.21,10.13-.23l6.52,0,.48-.33.46-.34Z"/><path class="cls-6" d="M28.62,82.05h0Z"/><path class="cls-6" d="M32.32,55.82c.47,0,.94,0,1.41,0h.18l1-.69a50.08,50.08,0,0,1,6-3.15c.77-.36,1.56-.71,2.36-1.06h0c3.89-1.7,8.12-3.36,12.21-4.75,2.47-.84,4.87-1.57,7.1-2.23a25.1,25.1,0,0,0,5.77-2.33,11.07,11.07,0,0,0,3.19-2.8,8.11,8.11,0,0,0,.63-1l.19-.36-.2.36a8.59,8.59,0,0,1-.65,1,11,11,0,0,1-3.24,2.7,24.72,24.72,0,0,1-5.78,2.16c-2.23.6-4.67,1.27-7.16,2.06a151.44,151.44,0,0,0-14.77,5.51q-1.08.47-2.1,1a39,39,0,0,0-4,2.16C33.65,54.86,33,55.35,32.32,55.82Z"/><path class="cls-6" d="M22.17,57.64c.17-.07.35-.15.53-.21l.35-.13c1.67-2.43,3.44-4.76,5.09-6.86,1-1.23,2.2-2.81,3.73-4.53a46.61,46.61,0,0,1,5.61-5.26c4.35-3.51,9.81-6.72,14.88-9.77s10-5.63,13.61-7.44c1.82-.91,3.31-1.63,4.35-2.12l1.62-.76-1.64.72c-1,.47-2.56,1.15-4.39,2-3.67,1.73-8.63,4.22-13.8,7.15A132.26,132.26,0,0,0,37,40a46.78,46.78,0,0,0-5.79,5.28c-1.59,1.73-2.84,3.32-3.81,4.55-.6.76-1.21,1.56-1.82,2.38-.8,1-1.59,2.15-2.38,3.28Q22.67,56.55,22.17,57.64Z"/><path class="cls-6" d="M24.14,50.94c-.08.16-.16.34-.23.49-.8,1.77-1.66,3.68-2.53,5.63l-.51,1.16c.43-.21.86-.4,1.3-.58q.49-1.1,1-2.16l1.66-3.64L25.2,51q.56-1.23,1.23-2.76c1-2.18,2.16-4.78,3.51-7.55,1.11-2.25,2.35-4.62,3.74-6.94s3-4.57,4.44-6.78c.74-1.11,1.45-2.22,2.09-3.33s1.19-2.22,1.7-3.29A34.33,34.33,0,0,1,45,14.84a12.19,12.19,0,0,1,3.07-3,8.64,8.64,0,0,1,1-.59l.38-.17-.38.16a8.51,8.51,0,0,0-1.05.57,12,12,0,0,0-3.17,3,33.93,33.93,0,0,0-3.21,5.47c-.54,1.06-1.11,2.14-1.77,3.22s-1.38,2.17-2.15,3.26c-.21.31-.44.62-.66.93-1.33,1.87-2.72,3.78-3.95,5.78-.11.16-.19.33-.3.5-1.32,2.15-2.53,4.33-3.61,6.42C27,44.57,25.31,48.38,24.14,50.94Z"/><path class="cls-6" d="M18.67,59.44q.61-.37,1.23-.72c.15-.53.29-1,.42-1.57a38.44,38.44,0,0,0,.83-4.28,31.54,31.54,0,0,0,.27-4.39c0-.44,0-.89,0-1.34-.07-2.17-.28-4.46-.44-6.76a48.65,48.65,0,0,1-.13-6.26,22.19,22.19,0,0,1,1.09-6,15.85,15.85,0,0,1,2.4-4.5c.08-.1.16-.18.25-.28s.16-.32.25-.48c-.21.21-.41.42-.62.67A15.81,15.81,0,0,0,21.62,28a22.61,22.61,0,0,0-1.29,6.09c-.35,4.15.15,8.53.22,12.46v.27c0,.11,0,.23,0,.33v.41A35.57,35.57,0,0,1,20.31,52c0,.26-.06.52-.1.77-.24,1.63-.57,3-.84,4.12v0C19.16,57.73,18.92,58.58,18.67,59.44Z"/><path class="cls-6" d="M13.31,64.37c.26-.35.53-.68.82-1-.09-.49-.18-1-.27-1.44,0-.12,0-.24-.07-.36-.35-1.71-1-4.36-1.89-7.35-.42-1.49-.88-3.08-1.31-4.69s-.84-3.24-1.11-4.85a24.19,24.19,0,0,1-.39-4.61,16.57,16.57,0,0,1,.54-3.83,12.82,12.82,0,0,1,.95-2.49c.15-.28.26-.5.35-.64l.13-.22-.14.22c-.09.13-.22.35-.38.62a12.84,12.84,0,0,0-1.06,2.46A16.34,16.34,0,0,0,8.78,40,23.78,23.78,0,0,0,9,44.75c.21,1.58.54,3.2.91,4.78l0,.16c.27,1.17.56,2.32.84,3.44.11.43.22.88.32,1.3.06.22.11.42.16.63.7,2.75,1.25,5.14,1.57,6.7C13,62.59,13.16,63.47,13.31,64.37Z"/><path class="cls-6" d="M11,67.27c.11.18.21.36.3.53.16-.35.32-.69.5-1a22,22,0,0,0-2-2.51c-.75-.86-1.57-1.73-2.29-2.69-.19-.25-.35-.53-.53-.79s-.47-.72-.69-1.1c-.1-.17-.19-.35-.28-.52s-.25-.43-.36-.65a19,19,0,0,1-1.73-5.93,19.17,19.17,0,0,1-.14-1.94v-.73s0,.26,0,.72A18.74,18.74,0,0,0,5.2,58.71,18.27,18.27,0,0,0,7,62c.49.73,1,1.38,1.53,2,.23.27.45.55.67.82A23.2,23.2,0,0,1,11,67.27Z"/><path class="cls-6" d="M9.92,77.08,8.62,77l-.32,0c-.45,0-1-.06-1.66-.13A4.32,4.32,0,0,1,4.37,76a7.47,7.47,0,0,1-1.46-1.69l-.52-.82s.14.35.39.9a7,7,0,0,0,1.26,2,3.78,3.78,0,0,0,1.15.85,5.69,5.69,0,0,0,1.31.46,19.36,19.36,0,0,0,2,.31A10.34,10.34,0,0,0,10,78C10,77.69,10,77.39,9.92,77.08Z"/><path class="cls-4" d="M26.27,56.4l.1,0,1-.19,6.06-7.47-5,4c.87-.65,3.19-3.67,3.08-4.7a58,58,0,0,0-7.07,8.81l.23-.06C25.2,56.65,25.73,56.52,26.27,56.4Z"/><path class="cls-4" d="M11.17,35.78a14,14,0,0,0,.69,9.59l.45-2.62c.41.77.81,1.55,1.22,2.33.22-.73.44-1.46.67-2.19.32,1.65.65,3.3,1,5l.89-5.2.51,3.29a7.46,7.46,0,0,1,.33,1.42,17.83,17.83,0,0,0,.94-3l.09-1.59.13.48a49.71,49.71,0,0,0,.5-6.8c.09-3.79.17-7.68,1.62-11.19s4.58-6.58,8.36-6.8a13.87,13.87,0,0,0-3.72,4.44c-.09.16-.17.32-.25.48a14.18,14.18,0,0,0-1.45,7.35q1.14-2,2.27-4.08l.17,2c.21-.61.42-1.22.6-1.82A15.31,15.31,0,0,0,25.89,30a7.72,7.72,0,0,1,1.37-3h0a9.58,9.58,0,0,1,.39-1.14.36.36,0,0,1,0-.09,8.43,8.43,0,0,1,.55-1.08l0,0a7.23,7.23,0,0,1,.63-.9l.17-.21a7.65,7.65,0,0,1,.79-.82c1.36-1.23,4.62-3,6.51-1.73A12.2,12.2,0,0,0,31,17.88a8.91,8.91,0,0,0-6.69,1.17A11.51,11.51,0,0,0,21,22.84c-2.62,4.44-2.73,9.06-3.11,14-.13,1.56-1.1,4.81-3.24,3.34C13.1,39.16,13,36.08,13.2,34.45a9.48,9.48,0,0,1,4.31-6.78l-.56,0h0l-.05.33A14.05,14.05,0,0,0,11.17,35.78Z"/><path class="cls-3" d="M17.84,44.31c-.11,1.85-.22,3.7-.26,5.56a11.28,11.28,0,0,0,.16,3.85c.73-1.17.78-3.2,1.06-4.57l.39,2.55a22,22,0,0,0-.46-13.05q.14,4.08.28,8.15c-.32-1.2-.64-2.4-1-3.6l-.13-.48Z"/><path class="cls-3" d="M16.3,45.27l.21,5.24a6.89,6.89,0,0,0,.39-3.16,7.46,7.46,0,0,0-.33-1.42Q16.45,45.61,16.3,45.27Z"/><path class="cls-4" d="M52.74,32.41c-1.25.63-2.84,1.09-3.91,1.67a58.67,58.67,0,0,0-5,3.08,70.66,70.66,0,0,0-8.49,7.33A162,162,0,0,1,55.37,33L46.8,36.25Z"/><path class="cls-4" d="M52.74,32.41a6,6,0,0,0,1.16-.75Z"/><path class="cls-4" d="M61.19,48.2a27.94,27.94,0,0,0,10.06-4.47l-6.2,2.33,6.29-4a25,25,0,0,1-8.47,3.58l2.83-1.49C60.34,46,55,47.73,49.65,49.63L57,48.49l-7.55,2.38A52.64,52.64,0,0,0,67.35,47Z"/><path class="cls-2" d="M2.24,51.47c-.59.27-1,2.34-1.05,3,.26-1.73.53-3.46.79-5.19a14.6,14.6,0,0,0,.58,15.59c-.44-1.47-.87-2.94-1.31-4.42L4,64.75Q3.14,61.89,2.29,59c.74,1.2,1.49,2.39,2.23,3.58C2.44,59.08,2.12,55.45,2.24,51.47Z"/><path class="cls-2" d="M24.16,41.77c0,.9-.05,1.8-.06,2.7l.75-4.32.59-3.43.12,2.1c.06,1.13.12,2.25.19,3.38l1-4.82L27,36.09l.18.91c.11.49.21,1,.31,1.46l.66-1.89.29.52a6.49,6.49,0,0,0,1.43-1.53A6.56,6.56,0,0,0,31,32.67a5,5,0,0,0-2.35,3.19l-.19-3.11-1.21.69-.42-.8c-.15.31-.3.62-.44.93a16.24,16.24,0,0,1-.19-6.81c-.18.6-.39,1.21-.6,1.82a17.14,17.14,0,0,0-1.35,6.21C24.31,37.11,24.23,39.44,24.16,41.77Z"/><path class="cls-2" d="M43.49,14a10.83,10.83,0,0,1,4.42-3.49L45,11.42A11.81,11.81,0,0,0,47.37,10c-3.47.27-6.06,4-6.72,7.13l1.28-1.89a11.72,11.72,0,0,0-1.41,3.55A32.68,32.68,0,0,1,43.49,14Z"/><path class="cls-2" d="M42.37,22.79c.35-.53,1.61-3.88,1.61-3.88S42,22.44,41.5,23.26c-.64,1-1.27,2-1.89,3-1.22,2-2.39,4.09-3.49,6.2-.62,1.2-1.23,2.41-1.82,3.63q1.22-1.8,2.41-3.61l-1.89,4.42A180.77,180.77,0,0,1,45.17,20.76C43.54,22.5,41.9,24.23,40.26,26,41,24.91,41.67,23.85,42.37,22.79Z"/><path class="cls-4" d="M15.37,58.61l.78,2.71,0,0c0-.35,0-.8,0-1.13A6.81,6.81,0,0,0,16,58.82a8.44,8.44,0,0,0-1.12-2.55c-.44-.68-.92-.81-1,.17a11,11,0,0,0,.6,2.86l.69,3,.14-.14C15.32,61,15.34,59.78,15.37,58.61Z"/><path class="cls-2" d="M120.66,118.39c.62.21,1.22.44,1.82.7C121.88,118.83,121.28,118.6,120.66,118.39Z"/><path class="cls-2" d="M11,93.32l-.08.07,1.55,1c-.49-.35-1-.7-1.47-1.07Z"/><path class="cls-2" d="M119.7,151.12a65.24,65.24,0,0,1,14.35,15.71,35.4,35.4,0,0,0-16.2-10.33l9.58,6.65a44.29,44.29,0,0,0-16.4-7l9.13,3.9-3.39.13a29.75,29.75,0,0,1,13.11,10c1,1,1.8,2,2.48,2.81.43.52.79,1,1.1,1.44s.59.81.8,1.12l.61.92c-.1-.13-.33-.42-.67-.88-.23-.3-.52-.66-.86-1.06s-.72-.88-1.17-1.37l-.86-.92a32.62,32.62,0,0,1,4.79,12.47c-.2.66-.42,1.3-.67,1.93a29.43,29.43,0,0,0,.57-19.55A27.82,27.82,0,0,0,127.92,155c.22.38.44.77.64,1.16A23.48,23.48,0,0,0,119.7,151.12Z"/><path class="cls-2" d="M133.23,191.06l.27-.45c0,.06-.07.11-.1.16S133.28,191,133.23,191.06Z"/><path class="cls-2" d="M124.78,120.17a28.49,28.49,0,0,1,3.42,2.1A28.49,28.49,0,0,0,124.78,120.17Z"/><path class="cls-2" d="M123,119.31c.45.2.9.41,1.34.63C123.88,119.72,123.43,119.51,123,119.31Z"/><path class="cls-2" d="M74.76,88,75,88Z"/><path class="cls-2" d="M121.14,150.6l.59.28Z"/><path class="cls-2" d="M119.76,150l.49.21Z"/><path class="cls-2" d="M140.33,153.17c-.11.47-.24.94-.37,1.41C140.1,154.11,140.22,153.64,140.33,153.17Z"/><path class="cls-2" d="M139.91,154.75c-.13.42-.26.85-.41,1.27C139.65,155.6,139.78,155.17,139.91,154.75Z"/><path class="cls-2" d="M126.1,153.56c.63.46,1.23.94,1.81,1.45C127.33,154.5,126.73,154,126.1,153.56Z"/><path class="cls-2" d="M113.2,148.29l.89.16Z"/><path class="cls-2" d="M117.07,149.12c.42.11.85.24,1.27.38C117.92,149.36,117.49,149.23,117.07,149.12Z"/><path class="cls-2" d="M110.57,147.93l.92.11Z"/><path class="cls-2" d="M111.89,148.09l.89.14Z"/><path class="cls-2" d="M115.79,148.79l.9.23Z"/><path class="cls-2" d="M109.24,147.79l1,.1Z"/><path class="cls-2" d="M114.5,148.52l.89.19Z"/><path class="cls-2" d="M85.14,109.91c-.52.14-1,.31-1.57.47l.29-.08C84.29,110.17,84.71,110,85.14,109.91Z"/><path class="cls-2" d="M134.91,187.88h0c-.08.18-.15.36-.24.54.24-.5.47-1,.68-1.54-.14.34-.29.67-.44,1Z"/><path class="cls-2" d="M125,152.77l.69.48Z"/><path class="cls-2" d="M11.87,92.4c-.14.18-.29.34-.44.5C11.58,92.74,11.73,92.58,11.87,92.4Z"/><path class="cls-2" d="M133.83,190c.21-.38.42-.76.61-1.15-.1.2-.21.39-.31.58Z"/><path class="cls-2" d="M123.77,152l.66.41Z"/><path class="cls-2" d="M107.9,147.67l1.11.1Z"/><path class="cls-2" d="M138.67,158.11c-.11.26-.22.52-.34.78C138.45,158.63,138.56,158.37,138.67,158.11Z"/><path class="cls-2" d="M139.36,156.38c-.13.36-.26.72-.4,1.08C139.1,157.1,139.23,156.74,139.36,156.38Z"/><path class="cls-2" d="M122.48,151.26l.63.35Z"/><path class="cls-2" d="M83.51,69.74l-.46-.24-.32-.17c-.26-.14-.53-.26-.8-.38C82.46,69.2,83,69.47,83.51,69.74Z"/><path class="cls-2" d="M100.71,127.86l11.13-.37c-8-2.27-16.4-2.51-24.72-2.67-3.15,1-6.27,2.1-9.38,3.2a30.21,30.21,0,0,1,18.6,1.21,56.49,56.49,0,0,0-19.58,4.07A76.5,76.5,0,0,1,91.28,130a53.45,53.45,0,0,1,12.11-1c1.29,0,2.63.14,4,.29C105.17,128.75,102.88,128.28,100.71,127.86Z"/><path class="cls-2" d="M79,67.67c-.77-.29-1.54-.56-2.33-.8C77.42,67.11,78.19,67.38,79,67.67Z"/><path class="cls-2" d="M66.47,136.88l-.08,0-.08.11.33.32.62-.29A3.5,3.5,0,0,1,66.47,136.88Z"/><path class="cls-2" d="M125.75,130.23a48.19,48.19,0,0,0-14.9-7.64l8,.22a58.24,58.24,0,0,0-11.25-2.17,63.45,63.45,0,0,0-7.78.89c-2.71.49-5.38,1.13-8,1.87A46.85,46.85,0,0,1,125.75,130.23Z"/><path class="cls-2" d="M81.24,68.62l-.5-.23-.06,0c-.35-.16-.7-.29-1.06-.43C80.17,68.15,80.71,68.38,81.24,68.62Z"/><path class="cls-2" d="M69.31,89.37l-.69.23Z"/><path class="cls-2" d="M100.73,108.34l1,.08Z"/><path class="cls-2" d="M103.58,108.6l.84.12Z"/><path class="cls-2" d="M53.53,103.42a3.13,3.13,0,0,1-.44-.36A3.13,3.13,0,0,0,53.53,103.42Z"/><path class="cls-2" d="M52.58,102.42a2.59,2.59,0,0,1-.28-.55A2.59,2.59,0,0,0,52.58,102.42Z"/><path class="cls-2" d="M78,87.47h0Z"/><path class="cls-2" d="M106.41,109l.54.11Z"/><path class="cls-2" d="M122.69,122.42a39.07,39.07,0,0,0-4.26-1.08l.17.08a35.3,35.3,0,0,1,14.9,14.69l-5.06-2.44,3.07,4.17c-.86-1.17-3.42-2.09-4.71-2.73a41.5,41.5,0,0,0-5.26-2.16l-.76-.22a45.45,45.45,0,0,1,11.09,6.41l1,.83.89.78c.55.49,1,.92,1.39,1.31l1.08,1.08c-.16-.14-.55-.49-1.13-1q-.57-.54-1.44-1.23l-.92-.75-1.07-.78a45.5,45.5,0,0,0-12.5-6.34,51,51,0,0,0-15.85-2.56,59,59,0,0,0-12.2,1.32,69.09,69.09,0,0,0-8.76,2.44c-1.3.46-2.59,1-3.84,1.48a35.54,35.54,0,0,1,7-2,34.49,34.49,0,0,1,4.18-.47c1-.05,3.21.43,4.05,0l-11,5.29,8.51-1.79-4.53,3.36,2.65.1.21,3.56.65.37c.73,1.19,2,2,2.71,3.17s.47,3.2-.9,3.44l9.75-1.61-5.76,2.76a11,11,0,0,1,2.81,0,2.11,2.11,0,0,1,.52-.31,5.3,5.3,0,0,1,2.38-.21l14,.91a48.36,48.36,0,0,0-7.9-4.61c-3.49-.29-7-.45-10.48-1-1.93-.3-4.14-1-4.87-2.76a3.55,3.55,0,0,1,.66-3.45,4.75,4.75,0,0,1,1.62-1.37,9.07,9.07,0,0,1,4.53-.74h0a48.67,48.67,0,0,1,22.76,2.57l-16.83-6.09a37.78,37.78,0,0,1,25.94,10.4l-7-6.88a26.35,26.35,0,0,1,14.38,13.52,81.61,81.61,0,0,0-1.79-15.18,39.87,39.87,0,0,1,4.24,12,29.17,29.17,0,0,1-.68,4.45A28.63,28.63,0,0,0,139,135.89a29.91,29.91,0,0,0-4.52-7.72A53.84,53.84,0,0,0,122.69,122.42Z"/><path class="cls-2" d="M72.15,88.58l-.47.13Z"/><path class="cls-2" d="M54,103.73l-.3-.18Z"/><path class="cls-2" d="M97.86,108.25l1.16,0Z"/><path class="cls-2" d="M89.26,109l1.41-.23Z"/><path class="cls-2" d="M130,123.66a31.1,31.1,0,0,1,4.45,4.51c-.06-.09-.13-.17-.19-.25A31.76,31.76,0,0,0,130,123.66Z"/><path class="cls-2" d="M80.69,111.39c.58-.22,1.16-.45,1.75-.65C81.85,110.94,81.27,111.17,80.69,111.39Z"/><path class="cls-2" d="M62.61,91.94c.39-.18.77-.37,1.15-.53C63.38,91.57,63,91.76,62.61,91.94Z"/><path class="cls-2" d="M77.18,112.91c.86-.42,1.72-.81,2.6-1.17C78.9,112.1,78,112.49,77.18,112.91Z"/><path class="cls-2" d="M54.33,103.86l.25.09-.2-.07Z"/><path class="cls-2" d="M87.89,109.25c-.49.1-1,.22-1.48.34l1.47-.34Z"/><path class="cls-2" d="M129.87,123.54c-.48-.39-1-.77-1.47-1.13l0,0C128.87,122.75,129.38,123.13,129.87,123.54Z"/><path class="cls-2" d="M92.12,108.57l1.34-.14Z"/><path class="cls-2" d="M53,102.92a3,3,0,0,1-.28-.34C52.77,102.7,52.86,102.81,53,102.92Z"/><path class="cls-2" d="M59.54,93.48c.51-.28,1-.57,1.54-.83C60.56,92.91,60.05,93.2,59.54,93.48Z"/><path class="cls-2" d="M56.93,95l1.23-.76.31-.19c-.85.49-1.7,1-2.52,1.55.29-.19.6-.36.9-.55Z"/><path class="cls-2" d="M16.34,97l.91.62,0,0Z"/><path class="cls-2" d="M85.89,71.13l-.37-.23-.42-.26c-.34-.2-.68-.4-1-.59C84.69,70.4,85.3,70.76,85.89,71.13Z"/><path class="cls-2" d="M66.51,90.31c-.31.11-.6.24-.91.36C65.91,90.55,66.2,90.42,66.51,90.31Z"/><path class="cls-2" d="M96.25,108.27l-1.26,0,.45,0Z"/><path class="cls-2" d="M55.67,123.38l.48-.18c.15-.52.34-1,.52-1.53C56.33,122.24,56,122.81,55.67,123.38Z"/><path class="cls-2" d="M92.1,76c-.59-.57-1.19-1.12-1.82-1.65l-.71-.59c-.64-.51-1.3-1-2-1.48-.49-.35-1-.69-1.48-1A39.48,39.48,0,0,1,92.1,76Z"/><path class="cls-2" d="M115.6,100.21a23.54,23.54,0,0,0-6-4.5A34.5,34.5,0,0,0,95.47,91.9a44.64,44.64,0,0,0-4.77,0,46.26,46.26,0,0,0-5.51.65,52.63,52.63,0,0,0-7.61,2c-.61.2-1.23.41-1.84.64l-.07,0c-.6.23-1.2.46-1.8.71-1.33.55-2.65,1.14-4,1.76-.23.12-.46.24-.7.35-1,.51-2,1-3,1.59-.46.25-.93.49-1.39.75s-.88.52-1.33.78l-1.38.81c-.59.36-1.18.72-1.78,1a9.46,9.46,0,0,1-3.33,1.2,5.38,5.38,0,0,1-1.55,0h0a5.12,5.12,0,0,1-4.23-2.84,6.91,6.91,0,0,1,.21-6,11.38,11.38,0,0,1,4.28-4.4,33.07,33.07,0,0,1,5.63-2.61l-9.82,2.83a82.3,82.3,0,0,1,19.92-8.63,44.5,44.5,0,0,1,11.25-1.92,23.53,23.53,0,0,1,11.1,2.27A19.26,19.26,0,0,0,85,82.63a24.61,24.61,0,0,1,16.3,6.76l.27.07-.4-.82c-.31-.64-.63-1.27-1-1.9-.61-1.14-1.27-2.25-2-3.33-.49-.74-1-1.46-1.52-2.17A42.57,42.57,0,0,0,92.12,76c.61.59,1.21,1.2,1.79,1.83a71.84,71.84,0,0,0-8-5.1,40.58,40.58,0,0,0-17.94-5.2,28.24,28.24,0,0,0-9,1.22,23.94,23.94,0,0,0-2.56,1c.41-.29.81-.56,1.22-.83l-.51.34-.29.19c-.86.6-1.7,1.22-2.54,1.85s-1.4,1.06-2.11,1.58l-.46.34-.48.33c-1.34.94-2.73,1.84-4.15,2.66-.87.51-1.74,1-2.63,1.44l-.19.09A57.2,57.2,0,0,1,32.65,82.1a6.16,6.16,0,0,1-4,0h0a2.36,2.36,0,0,1-.93-.85A3,3,0,0,1,27.89,78a8.84,8.84,0,0,1,2.41-2.27c.87-.64,1.74-1.28,2.62-1.91l1.5-1.07,1-.7a54.21,54.21,0,0,1,8.61-5c.77-.34,1.56-.64,2.36-.93a30.06,30.06,0,0,1,3.07-.92l.54-.13c.42-.09.85-.17,1.28-.24h0a24.2,24.2,0,0,1,4-.35h.88a20.48,20.48,0,0,1,2.2.22c.23,0,.46.08.69.12s.55.08.82.14l-.2-.1-1-.53-.23-.13c-2.26-1.16-4.52-2.33-6.8-3.41l-1-.45c-.67-.31-1.35-.61-2-.9l-.31-.13c-.44-.18-.88-.37-1.33-.54-.77-.31-1.54-.59-2.33-.85-.54-.19-1.1-.35-1.65-.52l-.37-.11-.6-.18-1.75-.43c-.91-.2-1.83-.38-2.76-.52a53.1,53.1,0,0,1-6.07,1.12,17,17,0,0,1,10,2.11,42.77,42.77,0,0,0-16.23,2.65l.47-.69-4.8,5.08c1.48-2.1,3-4.19,4.46-6.29a30.2,30.2,0,0,0-10.21,11.2,27.16,27.16,0,0,1,5-9.59A29.58,29.58,0,0,0,9.89,73.49c0-.36.06-.72.11-1.07a22.63,22.63,0,0,0-.08,4.66c0,.31.07.61.11.92v.08c.09.66.2,1.3.34,1.93l0,.12c0,.21.09.42.14.62q-.16-.68-.3-1.38a8.81,8.81,0,0,0,4,2.39l1.57,12.13,2.37-6.58q-.15,3.52-.28,7l1.59-1.68a19.89,19.89,0,0,0,.4-4.44c0-2.09-.23-4.22-.3-6.17a29.63,29.63,0,0,1,.11-3.73,19.14,19.14,0,0,1,1.13-4.83,19.51,19.51,0,0,1,6.78-8.89,19.3,19.3,0,0,1,9-3.45,18.18,18.18,0,0,1,3-.11c.62,0,1,.08,1.08.08H39.53a18.43,18.43,0,0,0-3,.3,19,19,0,0,0-8.48,3.86,17.28,17.28,0,0,0-1.35,1.22l.67-.61-2.67,4.43a15.13,15.13,0,0,1,4-3.51c-3.82,3-5.09,8.14-5.61,13-.21,1.89-.34,3.78-.57,5.67-.17,1.41-.14,3.7-1.22,4.77l-.06.06c0,.25-.06.5-.1.74a10,10,0,0,0,9-4.35L26.9,98.72l5.62-4.83a11.08,11.08,0,0,0-.71,4.16c.42-.55.86-1.08,1.32-1.6.49-.67,1-1.33,1.53-2a43.08,43.08,0,0,1,11-9.34A47,47,0,0,1,52,82,55.7,55.7,0,0,1,67.6,78.38a67.36,67.36,0,0,1,13.87.22c.9.1,1.71.21,2.42.33s1.34.2,1.84.29l1.47.27-1.48-.2c-.5-.07-1.13-.14-1.85-.21s-1.53-.17-2.43-.22a67.54,67.54,0,0,0-13.75.35A55.81,55.81,0,0,0,54.86,82.4a50.75,50.75,0,0,0-17,15l10.2-7.29a33.23,33.23,0,0,0-7,8.37l4.82-3.09q-1.56,2.28-3.13,4.55l3.38-2-5,10.13,6.47-6q-1.11,2.23-2.24,4.47l1.64-.87c.07.37.13.73.19,1.09l5.29-.87c-.38,1.47-.77,2.94-1.15,4.42l2.95-1.74c-.18.71-.35,1.41-.53,2.12l9.44-7-6.76,7.44a47.62,47.62,0,0,1,15.59-7A46.31,46.31,0,0,1,77.94,102a51.44,51.44,0,0,1,29.17.39c.86.26,1.62.52,2.29.77s1.25.46,1.71.66l1.36.58-1.38-.5c-.47-.19-1.06-.38-1.74-.59s-1.45-.45-2.31-.66a51.58,51.58,0,0,0-27.08.22A44.88,44.88,0,0,0,68.58,113.5a57.29,57.29,0,0,1,30.61-6.7c7.17.45,14.47,2.41,20.21,6.64,1,.52,2,1.08,3,1.68a28.77,28.77,0,0,0-.63-3.5,27.36,27.36,0,0,0-.83-2.75A24.19,24.19,0,0,0,115.6,100.21ZM39.67,85.58a32.48,32.48,0,0,1,12.75-8.15c-2.91,1-5.57,1.92-8.48,2.95a34.45,34.45,0,0,1,25-7.84c.91.08,1.58.93,2.45,1.21l-8.26-.32,4.76,1.14-5.92.51,8.55,1.77a33.35,33.35,0,0,0-16.06,1.79A100.23,100.23,0,0,0,39.67,85.58ZM101.79,99a84.43,84.43,0,0,0-27.39,2.11,54.49,54.49,0,0,1,20.94-3.67,84.4,84.4,0,0,0-11.79-.54l10-1.6a51.42,51.42,0,0,0-8.5.52c-2.68.38-5.36,1.47-8,1.74-.52-2.15,11.37-3.13,13.08-3.23a56.25,56.25,0,0,1,7.57.07c1.3.11,2.6.25,3.89.45,1,.15,2.58.79,3.61.67L94.51,96.78Z"/><path class="cls-2" d="M28.27,56.07c.56-.07,1.13-.13,1.7-.17C29.4,55.94,28.83,56,28.27,56.07Z"/><path class="cls-2" d="M35.64,56c.62.07,1.24.15,1.85.24C36.88,56.15,36.26,56.07,35.64,56Z"/><path class="cls-2" d="M58.83,68.09c-.37.21-.74.44-1.1.67C58.09,68.53,58.46,68.31,58.83,68.09Z"/><path class="cls-2" d="M60.6,67.15c.48-.22,1-.43,1.49-.61C61.58,66.72,61.08,66.93,60.6,67.15Z"/><path class="cls-2" d="M60.24,67.34c-.37.18-.73.36-1.09.56C59.51,67.7,59.87,67.52,60.24,67.34Z"/><path class="cls-2" d="M31.74,55.83h-.83l-.57,0-.29,0C30.61,55.85,31.18,55.83,31.74,55.83Z"/><path class="cls-2" d="M10.28,93.94C11.7,95,13.19,96,14.69,97h0l-4.42-3.15-.07,0S10.25,93.92,10.28,93.94Z"/><path class="cls-2" d="M35.59,56c-.56-.06-1.12-.1-1.68-.13h-.15C34.37,55.89,35,55.94,35.59,56Z"/><path class="cls-2" d="M32.32,55.82h-.38c.6,0,1.2,0,1.79,0C33.26,55.84,32.79,55.82,32.32,55.82Z"/><path class="cls-2" d="M24.29,56.91c-.42.12-.83.25-1.24.39l-.35.13C23.22,57.23,23.76,57.06,24.29,56.91Z"/><path class="cls-2" d="M26.27,56.4c-.54.12-1.07.25-1.61.4C25.2,56.65,25.73,56.51,26.27,56.4Z"/><path class="cls-2" d="M28,56.11l-.55.08-1,.19Q27.15,56.23,28,56.11Z"/><path class="cls-4" d="M116.77,160.2l3.39-.13-9.13-3.9c-.77-.16-1.54-.3-2.32-.42-1.93-.29-10,.39-10.5-2.29a1.66,1.66,0,0,1,.69-1.57,11,11,0,0,0-2.81,0l5.76-2.76-9.75,1.61c1.37-.24,1.61-2.24.9-3.44s-2-2-2.71-3.17l-.65-.37-.21-3.56-2.65-.1,4.53-3.36-8.51,1.79,11-5.29c-.84.41-3.06-.07-4.05,0a34.49,34.49,0,0,0-4.18.47,35.54,35.54,0,0,0-7,2c-1.57.65-3.08,1.33-4.47,2l-.3.15,2.12-.15a8.61,8.61,0,0,0-2,1.37c1.33,1.11,5.54-.27,7.15-.49l-5.69,3,8.52-.05-3.78,1.73,5.09.77c0,.17-3.9.5-3.91.67,1.95.77,7.78,1.39,9.73,2.17l-8.31,2.25,8.24,1.35-5,1.11,4.25.24-2.49.82,2.3.7-2.45,1.53.42.2a27.4,27.4,0,0,1,5.59.44l6.72,1.53-2.7.61,1.33.13.25,0a38.07,38.07,0,0,1,6.73.23c.78.09,1.72.23,2.79.45a37.74,37.74,0,0,1,4.63.7A26.22,26.22,0,0,1,116.77,160.2Z"/><path class="cls-4" d="M99.19,106.8a57.29,57.29,0,0,0-30.61,6.7A44.88,44.88,0,0,1,80,102.89c-.55.15-1.08.31-1.61.48a51.74,51.74,0,0,0-10.2,4.56,58.54,58.54,0,0,0-11.48,13.74c-.18.51-.37,1-.52,1.53l-.48.18c-.22.4-.46.8-.67,1.19l6.31-6.24q-1.94,3.47-3.85,6.93l2.66-2.18-1.35,3.42,1.48-1.45c-.1.65-.21,1.31-.31,2l2.52-1.87-.33.7c-.8,1.69-1.59,3.39-2.39,5.08q1.56,1.38,3.33,3a2.77,2.77,0,0,1,.22-.29c1.75-1.83,4.19-3.31,6.18-4.88l-4.73,6.65,4.13-2.17-2.48,3.6.08,0a3.5,3.5,0,0,0,.79.11,80.18,80.18,0,0,1,9.5-3.69,56.49,56.49,0,0,1,19.58-4.07A30.21,30.21,0,0,0,77.74,128c3.11-1.1,6.23-2.2,9.38-3.2l-.92,0a45.11,45.11,0,0,1,5.64-1.4c2.64-.74,5.31-1.38,8-1.87a63.45,63.45,0,0,1,7.78-.89,58.18,58.18,0,0,0-9.61-.1c6.43-2.82,14.07-2.23,20.4.8a39.07,39.07,0,0,1,4.26,1.08,53.84,53.84,0,0,1,11.79,5.75h0a31.1,31.1,0,0,0-4.45-4.51l-.15-.12c-.49-.41-1-.79-1.51-1.16a.91.91,0,0,0-.16-.11,28.49,28.49,0,0,0-3.42-2.1l-.46-.23c-.44-.22-.89-.43-1.34-.63l-.5-.22c-.6-.26-1.2-.49-1.82-.7-.28-.1-.56-.16-.84-.25a36.66,36.66,0,0,0-10.93-1.55c-.37,0-.75,0-1.13,0a57.46,57.46,0,0,0-7.63.74c-.94.15-1.88.33-2.82.52l-1.19.25c-1.66.36-3.31.76-5,1.18l-2.87.77-4.74,1.31-1.08.3-2.48.68a19.53,19.53,0,0,1-2.35.46,8.64,8.64,0,0,1-2.49,0,6.35,6.35,0,0,1-.78-.19,3.53,3.53,0,0,1-2.5-3.3v-.17a5.19,5.19,0,0,1,.82-2.74l.15-.24a8.74,8.74,0,0,1,2.6-2.27c.36-.23.74-.44,1.12-.64l.61-.32c.86-.42,1.72-.81,2.6-1.17.3-.13.61-.23.91-.35.58-.22,1.16-.45,1.75-.65.37-.13.75-.24,1.13-.36.53-.16,1.05-.33,1.57-.47l1.27-.32c.49-.12,1-.24,1.48-.34l1.37-.26,1.41-.23,1.45-.19,1.34-.14,1.53-.11,1.26,0h1.61l1.16,0c.57,0,1.14,0,1.71.07l1,.08q.93.08,1.83.18l.84.12,1.21.19.36.06.42.06.54.11c1,.2,2.08.45,3.11.72l.16,0,1,.26a45.57,45.57,0,0,1,8.22,3.27h0C113.66,109.21,106.36,107.25,99.19,106.8Z"/><path class="cls-7" d="M68.87,133.25l-4.13,2.17,4.73-6.65c-2,1.57-4.43,3-6.18,4.88a2.77,2.77,0,0,0-.22.29q1.54,1.42,3.24,3l.08-.11Z"/><path class="cls-4" d="M56.52,111.08l6.76-7.44-9.44,7c.18-.71.35-1.41.53-2.12l-2.95,1.74c.38-1.48.77-3,1.15-4.42l-5.29.87c-.06-.36-.12-.72-.19-1.09l-1.64.87q1.13-2.23,2.24-4.47l-6.47,6,5-10.13-3.38,2q1.58-2.26,3.13-4.55L41.1,98.48a33.23,33.23,0,0,1,7-8.37L37.88,97.4a50.75,50.75,0,0,1,17-15c-.79.31-1.58.62-2.33.95a48.15,48.15,0,0,0-10.25,6.12,47.13,47.13,0,0,0-6.19,5.75,6.12,6.12,0,0,0-1.26,4.25,3.88,3.88,0,0,0,.79,1.78c1.34,1.69,3.81,2,6,1.72l-3.39,4.12c1-.2,1.4,1.25,1.94,2.15A3.58,3.58,0,0,0,44,110.59a10.37,10.37,0,0,0,3.8-2,4.1,4.1,0,0,0,5.52,5.69c-.24,1.75-.58,3.32-.81,5.07A27.45,27.45,0,0,1,60.76,111a48,48,0,0,1,6-4.19,45.16,45.16,0,0,1,5.35-2.7A47.62,47.62,0,0,0,56.52,111.08Z"/><path class="cls-7" d="M22.54,85.44c.23-1.89.36-3.78.57-5.67.52-4.81,1.79-10,5.61-13a15.13,15.13,0,0,0-4,3.51l2.67-4.43-.67.61A18.73,18.73,0,0,0,22.15,74a22.08,22.08,0,0,0-.9,8c.05,1.89.22,4,.17,6.24,0,.67-.08,1.34-.16,2l.06-.06C22.4,89.14,22.37,86.85,22.54,85.44Z"/><path class="cls-3" d="M121.54,133a41.5,41.5,0,0,1,5.26,2.16c1.29.64,3.85,1.56,4.71,2.73l-3.07-4.17,5.06,2.44a35.3,35.3,0,0,0-14.9-14.69l-.17-.08c-6.33-3-14-3.62-20.4-.8a58.56,58.56,0,0,1,20.86,2.27l-8-.22a48.19,48.19,0,0,1,14.9,7.64,46.85,46.85,0,0,0-33.91-6.83,45.11,45.11,0,0,0-5.64,1.4l.92,0c8.32.16,16.72.4,24.72,2.67l-11.13.37c2.17.42,4.46.89,6.66,1.47a49.58,49.58,0,0,1,12.12,2.89c.44.16.86.33,1.29.51Z"/><path class="cls-7" d="M111.72,209.65q-.19-.57-.36-1.14.17.57.36,1.14a14,14,0,0,0,4,5.84A14,14,0,0,1,111.72,209.65Z"/><path class="cls-7" d="M31.83,148.13a44.51,44.51,0,0,1,8.07-8.67,46.16,46.16,0,0,1,9.89-6.27,42.8,42.8,0,0,1,7.08-2.57l-.41-.36-8-7-8.61-7.16-.15-.12a54.69,54.69,0,0,0-9.46.9c-3.12,1.27-6.22,2.58-9.38,3.8a45.15,45.15,0,0,1,24.52,2L32.86,125l10.7.62-5.88,1.8,6.63-.4-3,2.53,6.47-.68a54.61,54.61,0,0,0-23,18.41l15.7-10.68a50.87,50.87,0,0,0-17,32.84c.11-.34.23-.68.35-1A46,46,0,0,1,25,162.64,46.79,46.79,0,0,1,31.83,148.13Z"/><path class="cls-7" d="M119.75,186.75c.39.3.78.61,1.15.92C120.53,187.36,120.14,187.05,119.75,186.75Z"/><path class="cls-7" d="M115.57,174.49a3.91,3.91,0,0,0-.62.67A3.91,3.91,0,0,1,115.57,174.49Z"/><path class="cls-7" d="M13.61,97.54A10.77,10.77,0,0,0,14.69,97c-1.5-1-3-2-4.41-3,0,0,0,0-.06-.07h0L9.94,94c-3,1.6-6.8.21-9.94-1.28v5c2,.29,4,.54,5.83.67A16.6,16.6,0,0,0,13.61,97.54Z"/><path class="cls-7" d="M97.17,173.63c.38-.62.75-1.18,1.11-1.7-6.63-7.59-13.72-15-20.35-21.57a29.13,29.13,0,0,0-6.4,5.23,41,41,0,0,0-6.2,9c-.69,1.33-1.31,2.71-1.88,4.08A51.57,51.57,0,0,1,76.33,155.1q-3.09,6.38-6.16,12.75l7-7c-.41,1.41-.82,2.82-1.22,4.23l3.76-2.91.51,2.4,2.42-.94a1.84,1.84,0,0,0,3,1.28L86,166l1-.7q-1,10.61-1.91,21.2,2.64-6.53,5.27-13A83.89,83.89,0,0,0,89,200.74a63.34,63.34,0,0,1,4.09-23.67,73.33,73.33,0,0,0-1.15,14.41,37.2,37.2,0,0,1,.8-6.58A38.27,38.27,0,0,1,97.17,173.63Z"/><path class="cls-7" d="M64,163.88a39.35,39.35,0,0,1,6.7-9.12,29.86,29.86,0,0,1,4.3-3.48l.88-1.14-3.28,0c.27-.67.53-1.34.8-2l-4.19.72,2.21-2.43a25.63,25.63,0,0,0-8.23-7.45,4.21,4.21,0,0,1-1.27-.93,1.32,1.32,0,0,1-.2-1.47,1.25,1.25,0,0,1-1.4,0,1.28,1.28,0,0,1-.46-1.33l-3,.11,1.52-1-3.92.74L59,132.49l0-.05L47,136.24l.88-.62a47.58,47.58,0,0,0-7,5,46.62,46.62,0,0,0-7.7,8.47A48.19,48.19,0,0,0,27,161.18a47.4,47.4,0,0,1,23-21.11,30.22,30.22,0,0,0-10.7,13.46L50.74,144l-6.4,11.23c4.44-5.7,9.89-9.28,16.53-12.13l-4.39,3.8a5.25,5.25,0,0,1,5.06-.41,5.77,5.77,0,0,1,3.19,4.86l2.64-.05c-6.53,10.09-12.48,20.84-14.78,32.64S52.1,208.76,59.75,218a51.79,51.79,0,0,1-3-34.42,50.15,50.15,0,0,1,2-6c.27-1.18.55-2.23.82-3.13A54.54,54.54,0,0,1,64,163.88Z"/><path class="cls-7" d="M15.36,108.75l-7.82,3.3,5.08.64c-.45,0-.63.65-.33,1a1.72,1.72,0,0,0,1.24.42l20.55,1.21c1.7-.1,3.27-.12,4.63-.08l0,0a45.07,45.07,0,0,1-5.68-1l-1.21-.4L29.35,113l1.75-1.1-3.9-.72,1.21-.77-9.61-.09a16,16,0,0,1,9.46-1.79,18.62,18.62,0,0,0-8-2.37l3.22-.72-4.69-.6,5-1-7.62-1.77h-.73a46.93,46.93,0,0,0-10.63,1.44c-1.64.41-3.24.9-4.81,1.43v3.11a32.18,32.18,0,0,1,16-3.14c-.77.42-2.2,1.36-3,1.77l5-.07-14.1,2.32,4.24-1.82A38.26,38.26,0,0,0,0,108.4v2.28A42.51,42.51,0,0,1,15.36,108.75Z"/><path class="cls-7" d="M15.45,100.88a33.92,33.92,0,0,1,5.47.63c-2.06-1.51-4-2.93-5.79-4.22a8.82,8.82,0,0,1-1.24.84,16,16,0,0,1-8.13,1.49C3.93,99.57,2,99.41,0,99.18v.57l3.86,1c-1.29,0-2.58.08-3.86.19v2.34c1.45-.46,2.94-.88,4.45-1.22A44,44,0,0,1,15.45,100.88Z"/><path class="cls-7" d="M116.77,160.2a26.22,26.22,0,0,0-3.53-1.08,37.74,37.74,0,0,0-4.63-.7,38.27,38.27,0,0,1,6.06,1.74A42.13,42.13,0,0,1,125,165.91a41.12,41.12,0,0,1,4.85,4.31A29.75,29.75,0,0,0,116.77,160.2Z"/><path class="cls-7" d="M134.13,189.47c.1-.19.21-.38.31-.58s.16-.31.23-.47.16-.36.24-.54C134.67,188.42,134.4,189,134.13,189.47Z"/><path class="cls-7" d="M131.31,172.28a42.92,42.92,0,0,0-6.77-5.69,41.91,41.91,0,0,0-10.34-5.09,47,47,0,0,0-14.87-2.21,44.08,44.08,0,0,1,9.38,2.39l-8,.06,9.92,5.14c.63.32,1.35.81,1.3,1.51-.07,1-1.52,1.15-2.49.86s-2.24-.62-2.81.22c.18.53.36,1.06.53,1.6l-2.39.7,4.73,5.37-5.93-3.43A188.38,188.38,0,0,1,122.15,200c2.81,3.55,5.54,7.13,8.15,10.75A101.44,101.44,0,0,0,118.86,188a48.57,48.57,0,0,1-3.06-4.88A9.3,9.3,0,0,1,115,182a6.7,6.7,0,0,1-.53-6.1,6.54,6.54,0,0,1,1.47-3.08c2.54-2.87,7.36-2.59,10.47-.35s4.87,5.87,6.3,9.42c.79,2,1.5,4,2.17,6,.15-.33.3-.66.44-1a1.67,1.67,0,0,1,.08-.2c.25-.63.47-1.27.67-1.93A32.62,32.62,0,0,0,131.31,172.28Z"/><path class="cls-7" d="M133.4,190.77c0-.05.07-.1.1-.16s.17-.29.25-.43C133.64,190.38,133.51,190.57,133.4,190.77Z"/><path class="cls-7" d="M87.9,155.05l-.42-.2-.3.18Z"/><path class="cls-7" d="M95,158.19c1.25-.2,2.56-.35,3.88-.43l-1.33-.13Z"/><path class="cls-4" d="M18.16,87.31l-2.37,6.58L14.22,81.76a8.81,8.81,0,0,1-4-2.39q.13.7.3,1.38c.05.19.11.38.17.56.18.55.39,1.1.62,1.63.16.37.32.73.49,1.09a14.77,14.77,0,0,1,1.34,4A5.47,5.47,0,0,1,12,92.19c0,.07-.1.14-.15.21s-.29.34-.44.5a4.47,4.47,0,0,1-.45.42h0c.48.37,1,.72,1.47,1.07,1.21.78,2.51,1.66,3.89,2.59l.93.6A11.07,11.07,0,0,0,19.1,94.1c.14-.46.26-.93.37-1.42l-1.59,1.68Q18,90.84,18.16,87.31Z"/><path class="cls-4" d="M20.35,95.73a1.42,1.42,0,0,1,2.82-.11c.08.73-.4,1.4-.51,2.12a2.19,2.19,0,0,0,3.8,1.81L28,103.84a41.45,41.45,0,0,1,3.83-5.79,11.08,11.08,0,0,1,.71-4.16L26.9,98.72l3.3-12.06a10,10,0,0,1-9,4.35,15.72,15.72,0,0,1-.94,3.45C20.26,94.89,20.31,95.31,20.35,95.73Z"/><path class="cls-5" d="M9.32,120.12a34.05,34.05,0,0,1,5-1.75c1.64-.44-8.55,6.15-13.75,11.82a43.82,43.82,0,0,1,11.09-7.73,47.13,47.13,0,0,1,5.15-2.78,49.2,49.2,0,0,1,13.19-4c1.43-.21,2.79-.34,4.08-.42L13.53,114.1a1.72,1.72,0,0,1-1.24-.42c-.3-.34-.12-1,.33-1l-5.08-.64,7.82-3.3A42.51,42.51,0,0,0,0,110.68v2.74c1.82-.4,3.68-.21,4.73,1.21a4.38,4.38,0,0,1-.2,4.86A14.32,14.32,0,0,1,.74,123l-.74.55v2.29c.79-.62,1.59-1.22,2.41-1.79A40.86,40.86,0,0,1,9.32,120.12Z"/><path class="cls-5" d="M0,99.75v1.14c1.28-.11,2.57-.18,3.86-.19Z"/><path class="cls-5" d="M21.09,146.2l.75-1.3Z"/><path class="cls-5" d="M22.14,144.39c.35-.58.71-1.16,1.07-1.72C22.85,143.23,22.49,143.81,22.14,144.39Z"/><path class="cls-5" d="M10.09,202.88c-.21-10.54-3-19.92-5.82-30.1s-4.45-21.31-.46-31.08a23.59,23.59,0,0,1,14.34-13.6c2.57-.78,5.68-.37,7.44,1.63A5.66,5.66,0,0,1,27.88,135c-.25,2.5-1.71,4.69-3.06,6.8a134.42,134.42,0,0,0-9.28,17.15,72,72,0,0,1,3.34-8.42c-7.51,15.89-10,36.28,1.07,50.6,1.55,2,3.37,3.87,4.57,6.12s1.66,5.11.4,7.33c6.86-2.08,11.31-8.83,12.67-15.86s.76-14.33,1.89-21.4A44.1,44.1,0,0,1,53.08,152c1.61-1.48,3.88-2.91,5.84-1.93a4,4,0,0,1,1.88,3.61,10.76,10.76,0,0,1-1.15,4.08c-3.18,7.35-7.7,14.41-10.59,21.88s-4.76,15.72-4,23.69,5.25,16.2,12,20.51c6.24,4,14.64,4.82,21.79,6.1a19.1,19.1,0,0,1,4.7,1.26A6.44,6.44,0,0,1,87,234.54c.47-5.18-1.31-10.63-4.11-15s-6.37-8.7-8.82-13.33c-5.43-10.28-6.43-22.88-2-33.62a11.41,11.41,0,0,1,2.79-4.37,4.78,4.78,0,0,1,4.85-1.06c2.5,1.06,3,4.33,3,7,.07,6.56-.38,13.14.07,19.69s1.89,13.18,5.45,18.7,9.47,9.79,16,10.14a18.9,18.9,0,0,1-3.42-14.34,9.18,9.18,0,0,1,1.7-4.62,4.57,4.57,0,0,1,4.37-1.79,5.29,5.29,0,0,1,3.35,3.17,26.44,26.44,0,0,1,1.1,3.4q.17.57.36,1.14a14,14,0,0,0,7.65,8.11c3,1.25,6.3,1.45,9.3,2.62s5.87,3.91,5.5,7.11c2.71-14.78-1.63-30.32-13.27-39.82-.37-.31-.76-.62-1.15-.92a24.15,24.15,0,0,1-4-3.66h0a48.57,48.57,0,0,0,3.06,4.88,101.44,101.44,0,0,1,11.44,22.74c-2.61-3.62-5.34-7.2-8.15-10.75.89,1.51,1.77,3,2.61,4.57,1,1.72,1.83,3.51,2.71,5.29l.52.85c.91,1.51,1.71,2.81,2.35,3.88,1,1.6,1.63,2.66,1.89,3.1-.28-.42-.95-1.48-1.95-3.07-.57-.91-1.26-2-2.05-3.23l.21.42c-.9-1.45-1.82-2.88-2.74-4.31l-1.14-1.66-4.06-5.9c-1.52-2.06-3.14-4.26-4.84-6.55-.86-1.13-1.7-2.33-2.63-3.5l-2.81-3.54c-1.91-2.4-3.85-4.91-6-7.33-1.71-2.09-3.48-4.17-5.29-6.25-.24.47-.5,1-.76,1.47a47.91,47.91,0,0,0-3.87,11.06,44.58,44.58,0,0,0-1.06,7.91,41.86,41.86,0,0,0,3.81,19.13c.5,1.1,1,2,1.3,2.58s.42.74.48.86c-.08-.11-.27-.4-.54-.83s-.9-1.41-1.47-2.48a41.71,41.71,0,0,1-5-19.28c0-.57,0-1.13,0-1.67a73.33,73.33,0,0,1,1.15-14.41A63.34,63.34,0,0,0,89,200.74a83.89,83.89,0,0,1,1.41-27.32q-2.64,6.51-5.27,13,1-10.61,1.91-21.2l-1,.7-.32-1.1a1.84,1.84,0,0,1-3-1.28l-2.42.94-.51-2.4L76,165c.4-1.41.81-2.82,1.22-4.23l-7,7q3.08-6.37,6.16-12.75a51.57,51.57,0,0,0-12.88,13.59,60.18,60.18,0,0,0-2.22,6.23,54.39,54.39,0,0,0-2.34,14.83A41.64,41.64,0,0,0,63,208.84a38.94,38.94,0,0,0,5.12,7.83,34.64,34.64,0,0,0,5.69,5.39c.88.7,1.76,1.23,2.52,1.73s1.46.84,2,1.15l1.54.74L78.33,225l-2.08-1.08c-.77-.48-1.67-1-2.59-1.66A35.2,35.2,0,0,1,67.73,217a39,39,0,0,1-5.46-7.8,42.27,42.27,0,0,1-4.81-19.47,52.2,52.2,0,0,1,1.34-12.17,50.15,50.15,0,0,0-2,6,51.79,51.79,0,0,0,3,34.42c-7.65-9.27-9.46-22.35-7.16-34.14s8.25-22.55,14.78-32.64l-2.64.05a5.77,5.77,0,0,0-3.19-4.86,5.25,5.25,0,0,0-5.06.41l4.39-3.8c-6.64,2.85-12.09,6.43-16.53,12.13L50.74,144,39.3,153.53A30.22,30.22,0,0,1,50,140.07a47.4,47.4,0,0,0-23,21.11c-.21.6-.42,1.21-.61,1.85a49.08,49.08,0,0,0-1.84,9.89,53.35,53.35,0,0,0,.34,10.35c.43,3.39,1,6.65,1.59,9.65s1,5.75,1.3,8.07.41,4.26.48,5.59c0,1.17,0,1.88,0,2,0-.16-.05-.87-.1-2-.11-1.33-.27-3.24-.66-5.55s-.93-5-1.57-8-1.36-6.22-1.9-9.63a52.78,52.78,0,0,1-.65-10.55c.08-1.49.24-3,.45-4.41-.12.35-.24.69-.35,1a50.87,50.87,0,0,1,17-32.84L24.78,147.3a54.61,54.61,0,0,1,23-18.41l-6.47.68,3-2.53-6.63.4,5.88-1.8L32.86,125l12.48-2.29a45.15,45.15,0,0,0-24.52-2c3.16-1.22,6.26-2.53,9.38-3.8h0a51.94,51.94,0,0,0-12.72,4.17A46.62,46.62,0,0,0,6.3,128.6a45.37,45.37,0,0,0-6.3,7v51.2A46,46,0,0,0,3.68,191l1.77,1.62c-.15-.12-.78-.66-1.82-1.57A45.81,45.81,0,0,1,0,187.19V197.4a33.36,33.36,0,0,1,5.54,1.22A7.08,7.08,0,0,1,10.09,202.88Zm6.61-24.5a32,32,0,0,1,2.76-23A114.44,114.44,0,0,0,16.7,178.38Zm67.81,11.49c.81,5.73.95,10.53,1.76,16.26A49,49,0,0,1,84.51,189.87ZM28.74,163c.69-1.68,1.73-2.6,2.65-4.16a40.29,40.29,0,0,0-1.76,11.74,57.17,57.17,0,0,1,5.42-12.79L32.5,170l5.16-11.61A75.55,75.55,0,0,0,34.54,196a72.21,72.21,0,0,1-4-22.08l-.15,13.3q-1-7.51-2-15c.21,4.88.32,10,.52,14.83A31.63,31.63,0,0,1,28.74,163Z"/><path class="cls-5" d="M19,150.18c.25-.53.51-1.05.78-1.57C19.54,149.13,19.28,149.65,19,150.18Z"/><path class="cls-5" d="M20.06,148.11c.24-.45.48-.9.73-1.35C20.54,147.21,20.3,147.66,20.06,148.11Z"/><path class="cls-7" d="M134.91,187.88h0c-.67-2-1.38-4-2.17-6-1.43-3.55-3.19-7.19-6.3-9.42s-7.93-2.52-10.47.35a6.54,6.54,0,0,0-1.47,3.08h0a5,5,0,0,1,.45-.74,3.91,3.91,0,0,1,.62-.67,5.47,5.47,0,0,1,5.27-.69,11.64,11.64,0,0,1,4.46,3.26,28.22,28.22,0,0,1,7.17,15.14c.26-.37.51-.75.76-1.14.05-.1.11-.19.17-.29s.24-.39.35-.59a1,1,0,0,1,.08-.14l.3-.57C134.4,189,134.67,188.42,134.91,187.88Z"/><path class="cls-2" d="M58.93,132.44l-1.4-1.24a50.11,50.11,0,0,0-7.21,3.06c-.8.42-1.62.87-2.44,1.36l-.88.62Z"/><path class="cls-2" d="M54.44,135l3.92-.74-1.52,1,3-.11a1.28,1.28,0,0,0,.46,1.33,1.25,1.25,0,0,0,1.4,0,1.32,1.32,0,0,0,.2,1.47,4.21,4.21,0,0,0,1.27.93,25.63,25.63,0,0,1,8.23,7.45l-2.21,2.43,4.19-.72c-.27.68-.53,1.35-.8,2l3.28,0L75,151.28a23,23,0,0,1,2.46-1.42c-7.08-7-13.59-13.05-18.45-17.37Z"/><path class="cls-8" d="M18.78,104.84l4.69.6-3.22.72a18.62,18.62,0,0,1,8,2.37,16,16,0,0,0-9.46,1.79l9.61.09-1.21.77,3.9.72L29.35,113l2.43.79,1.21.4a45.07,45.07,0,0,0,5.68,1l-7.59-6-8.35-6.35-.25-.17a35.84,35.84,0,0,0-6.31-.57l7.62,1.77Z"/><path class="cls-4" d="M5.17,127.36a43.4,43.4,0,0,1,6.49-4.9A43.82,43.82,0,0,0,.57,130.19c5.2-5.67,15.39-12.26,13.75-11.82a34.05,34.05,0,0,0-5,1.75A40.86,40.86,0,0,0,2.41,124c-.82.57-1.62,1.17-2.41,1.79V133A42.21,42.21,0,0,1,5.17,127.36Z"/><path class="cls-7" d="M76.76,133.3a80.18,80.18,0,0,0-9.5,3.69l-.62.29c.76.71,1.53,1.45,2.32,2.21,1.26-.86,2.8-1.84,4.58-2.83a62.1,62.1,0,0,1,8.34-3.9,58.44,58.44,0,0,1,8.93-2.63l.47-.09A76.5,76.5,0,0,0,76.76,133.3Z"/><path class="cls-7" d="M100.21,157l-6.72-1.53a27.4,27.4,0,0,0-5.59-.44l-.72,0,.3-.18,2.45-1.53-2.3-.7,2.49-.82-4.25-.24,5-1.11-8.24-1.35L91,146.85c-1.95-.78-7.78-1.4-9.73-2.17,0-.17,3.9-.5,3.91-.67l-5.09-.77,3.78-1.73-8.52.05,5.69-3c-1.61.22-5.82,1.6-7.15.49a8.61,8.61,0,0,1,2-1.37l-2.12.15c-1.58.79-3,1.56-4.21,2.23,5.84,5.64,12.55,12.4,19.24,19.68a31.18,31.18,0,0,1,3.67-1.09c.78-.18,1.61-.34,2.47-.48l2.55-.56Z"/><path class="cls-7" d="M109.45,177.14l-4.73-5.37,2.39-.7c-.17-.54-.35-1.07-.53-1.6.57-.84,1.84-.52,2.81-.22s2.42.15,2.49-.86c.05-.7-.67-1.19-1.3-1.51l-9.92-5.14,8-.06a44.08,44.08,0,0,0-9.38-2.39,45.46,45.46,0,0,0-6.61.54c-1.21.19-2.3.42-3.26.62,5.32,5.81,10.61,11.91,15.45,18,2.07,2.46,4,5,5.84,7.44.94,1.22,1.87,2.42,2.77,3.6s1.73,2.39,2.57,3.55c1.66,2.32,3.26,4.54,4.73,6.64s2.74,4.14,4,6l1.73,2.62c.35.53.66,1,1,1.55-.88-1.78-1.75-3.57-2.71-5.29-.84-1.54-1.72-3.06-2.61-4.57a188.38,188.38,0,0,0-18.63-26.25Z"/><path class="cls-7" d="M126.34,208.39l-.64-.93c.92,1.43,1.84,2.86,2.74,4.31l-.21-.42c-.12-.2-.24-.39-.38-.59C127.38,210,126.9,209.22,126.34,208.39Z"/><path class="cls-7" d="M31.81,98.05A41.45,41.45,0,0,0,28,103.84l-1.52-4.29a2.19,2.19,0,0,1-3.8-1.81c.11-.72.59-1.39.51-2.12a1.42,1.42,0,0,0-2.82.11c0-.42-.09-.84-.13-1.27a.08.08,0,0,0,0,0A10.22,10.22,0,0,1,17.88,98l5.54,3.83,4.84,3.53A33.56,33.56,0,0,1,29.7,102a37,37,0,0,1,3.43-5.58C32.67,97,32.23,97.5,31.81,98.05Z"/><path class="cls-7" d="M62.13,125.84l.33-.7L59.94,127c.1-.65.21-1.31.31-2l-1.48,1.45,1.35-3.42-2.66,2.18q1.92-3.47,3.85-6.93L55,124.57c.21-.39.45-.79.67-1.19.33-.57.66-1.14,1-1.71a58.54,58.54,0,0,1,11.48-13.74l-.54.31a55.6,55.6,0,0,0-13.36,11c-1.3,1.47-2.39,2.88-3.27,4L57.57,129c.68.59,1.41,1.23,2.17,1.92C60.54,129.23,61.33,127.53,62.13,125.84Z"/><path class="cls-7" d="M52.47,119.32c.23-1.75.57-3.32.81-5.07a4.1,4.1,0,0,1-5.52-5.69,10.37,10.37,0,0,1-3.8,2,3.58,3.58,0,0,1-3.83-1.35c-.54-.9-.92-2.35-1.94-2.15L41.58,103c-2.15.24-4.62,0-6-1.72a3.88,3.88,0,0,1-.79-1.78,6.12,6.12,0,0,1,1.26-4.25l-.25.27a42.61,42.61,0,0,0-5.1,7.1c-.67,1.2-1.23,2.33-1.7,3.38l2.88,2.09,8.85,6.84L49.49,122l.87.76a45.63,45.63,0,0,1,3-4.29,48.25,48.25,0,0,1,6.14-6.42c.42-.37.85-.72,1.28-1.08A27.45,27.45,0,0,0,52.47,119.32Z"/><path class="cls-6" d="M6.3,128.6a46.62,46.62,0,0,1,11.17-7.53,51.94,51.94,0,0,1,12.72-4.17h0a54.69,54.69,0,0,1,9.46-.9l.15.12,8.61,7.16,8,7,.41.36a42.8,42.8,0,0,0-7.08,2.57,46.16,46.16,0,0,0-9.89,6.27,44.51,44.51,0,0,0-8.07,8.67A46.79,46.79,0,0,0,25,162.64a46,46,0,0,0-1.18,5.79c-.21,1.45-.37,2.92-.45,4.41a52.78,52.78,0,0,0,.65,10.55c.54,3.41,1.25,6.66,1.9,9.63s1.19,5.7,1.57,8,.55,4.22.66,5.55c0,1.16.09,1.87.1,2,0-.16,0-.87,0-2-.07-1.33-.17-3.25-.48-5.59s-.76-5.07-1.3-8.07-1.16-6.26-1.59-9.65a53.35,53.35,0,0,1-.34-10.35A49.08,49.08,0,0,1,26.39,163c.19-.64.4-1.25.61-1.85a48.19,48.19,0,0,1,6.2-12.08,46.62,46.62,0,0,1,7.7-8.47,47.58,47.58,0,0,1,7-5c.82-.49,1.64-.94,2.44-1.36a50.11,50.11,0,0,1,7.21-3.06l1.4,1.24,0,.05c4.86,4.32,11.37,10.36,18.45,17.37A23,23,0,0,0,75,151.28a29.86,29.86,0,0,0-4.3,3.48,39.35,39.35,0,0,0-6.7,9.12,54.54,54.54,0,0,0-4.35,10.57c-.27.9-.55,2-.82,3.13a52.2,52.2,0,0,0-1.34,12.17,42.27,42.27,0,0,0,4.81,19.47,39,39,0,0,0,5.46,7.8,35.2,35.2,0,0,0,5.93,5.25c.92.67,1.82,1.18,2.59,1.66L78.33,225l1.57.67-1.54-.74c-.56-.31-1.25-.69-2-1.15s-1.64-1-2.52-1.73a34.64,34.64,0,0,1-5.69-5.39A38.94,38.94,0,0,1,63,208.84a41.64,41.64,0,0,1-4.12-19.09,54.39,54.39,0,0,1,2.34-14.83,60.18,60.18,0,0,1,2.22-6.23c.57-1.37,1.19-2.75,1.88-4.08a41,41,0,0,1,6.2-9,29.13,29.13,0,0,1,6.4-5.23c6.63,6.58,13.72,14,20.35,21.57-.36.52-.73,1.08-1.11,1.7A38.27,38.27,0,0,0,92.7,184.9a37.2,37.2,0,0,0-.8,6.58c0,.54,0,1.1,0,1.67a41.71,41.71,0,0,0,5,19.28c.57,1.07,1.09,1.91,1.47,2.48s.46.72.54.83c-.06-.12-.23-.41-.48-.86s-.8-1.48-1.3-2.58a41.86,41.86,0,0,1-3.81-19.13,44.58,44.58,0,0,1,1.06-7.91,47.91,47.91,0,0,1,3.87-11.06c.26-.52.52-1,.76-1.47,1.81,2.08,3.58,4.16,5.29,6.25,2.11,2.42,4,4.93,6,7.33l2.81,3.54c.93,1.17,1.77,2.37,2.63,3.5,1.7,2.29,3.32,4.49,4.84,6.55l4.06,5.9,1.14,1.66.64.93c.56.83,1,1.63,1.51,2.37.14.2.26.39.38.59.79,1.24,1.48,2.32,2.05,3.23,1,1.59,1.67,2.65,1.95,3.07-.26-.44-.91-1.5-1.89-3.1-.64-1.07-1.44-2.37-2.35-3.88l-.52-.85c-.3-.5-.61-1-1-1.55l-1.73-2.62c-1.22-1.83-2.54-3.84-4-6s-3.07-4.32-4.73-6.64c-.84-1.16-1.67-2.37-2.57-3.55s-1.83-2.38-2.77-3.6c-1.87-2.44-3.77-5-5.84-7.44-4.84-6.09-10.13-12.19-15.45-18,1-.2,2.05-.43,3.26-.62a45.46,45.46,0,0,1,6.61-.54,47,47,0,0,1,14.87,2.21,41.91,41.91,0,0,1,10.34,5.09,42.92,42.92,0,0,1,6.77,5.69l.86.92c.45.49.83,1,1.17,1.37s.63.76.86,1.06c.34.46.57.75.67.88l-.61-.92c-.21-.31-.48-.69-.8-1.12s-.67-.92-1.1-1.44c-.68-.85-1.52-1.81-2.48-2.81a41.12,41.12,0,0,0-4.85-4.31,42.13,42.13,0,0,0-10.36-5.75,38.27,38.27,0,0,0-6.06-1.74c-1.07-.22-2-.36-2.79-.45a38.07,38.07,0,0,0-6.73-.23l-.25,0c-1.32.08-2.63.23-3.88.43-.86.14-1.69.3-2.47.48a31.18,31.18,0,0,0-3.67,1.09c-6.69-7.28-13.4-14-19.24-19.68,1.21-.67,2.63-1.44,4.21-2.23l.3-.15c1.39-.68,2.9-1.36,4.47-2,1.25-.52,2.54-1,3.84-1.48a69.09,69.09,0,0,1,8.76-2.44,59,59,0,0,1,12.2-1.32A51,51,0,0,1,119.21,133a45.5,45.5,0,0,1,12.5,6.34l1.07.78.92.75q.87.69,1.44,1.23c.58.54,1,.89,1.13,1l-1.08-1.08c-.36-.39-.84-.82-1.39-1.31l-.89-.78-1-.83a45.45,45.45,0,0,0-11.09-6.41c-.43-.18-.85-.35-1.29-.51a49.58,49.58,0,0,0-12.12-2.89c-1.35-.15-2.69-.25-4-.29a53.45,53.45,0,0,0-12.11,1l-.47.09a58.44,58.44,0,0,0-8.93,2.63,62.1,62.1,0,0,0-8.34,3.9c-1.78,1-3.32,2-4.58,2.83-.79-.76-1.56-1.5-2.32-2.21l-.33-.32q-1.69-1.59-3.24-3-1.77-1.63-3.33-3c-.76-.69-1.49-1.33-2.17-1.92L51,123.31c.88-1.17,2-2.58,3.27-4a55.6,55.6,0,0,1,13.36-11l.54-.31a51.74,51.74,0,0,1,10.2-4.56c.53-.17,1.06-.33,1.61-.48a51.58,51.58,0,0,1,27.08-.22c.86.21,1.64.44,2.31.66s1.27.4,1.74.59l1.38.5-1.36-.58c-.46-.2-1-.41-1.71-.66s-1.43-.51-2.29-.77A51.44,51.44,0,0,0,77.94,102a46.31,46.31,0,0,0-5.83,2.08,45.16,45.16,0,0,0-5.35,2.7,48,48,0,0,0-6,4.19c-.43.36-.86.71-1.28,1.08a48.25,48.25,0,0,0-6.14,6.42,45.63,45.63,0,0,0-3,4.29l-.87-.76-8.72-7.12-8.85-6.84L29,106c.47-1,1-2.18,1.7-3.38a42.61,42.61,0,0,1,5.1-7.1l.25-.27a47.13,47.13,0,0,1,6.19-5.75,48.15,48.15,0,0,1,10.25-6.12c.75-.33,1.54-.64,2.33-.95a55.81,55.81,0,0,1,12.83-3.19,67.54,67.54,0,0,1,13.75-.35c.9,0,1.71.13,2.43.22s1.35.14,1.85.21l1.48.2-1.47-.27c-.5-.09-1.12-.19-1.84-.29s-1.52-.23-2.42-.33a67.36,67.36,0,0,0-13.87-.22A55.7,55.7,0,0,0,52,82a47,47,0,0,0-6.31,3.1,43.08,43.08,0,0,0-11,9.34c-.53.64-1,1.3-1.53,2A37,37,0,0,0,29.7,102a33.56,33.56,0,0,0-1.44,3.36l-4.84-3.53L17.88,98a10.22,10.22,0,0,0,2.33-3.53.08.08,0,0,1,0,0A15.72,15.72,0,0,0,21.16,91c0-.24.07-.49.1-.74.08-.67.14-1.34.16-2,0-2.19-.12-4.35-.17-6.24a22.08,22.08,0,0,1,.9-8,18.73,18.73,0,0,1,4.6-7.47,17.28,17.28,0,0,1,1.35-1.22,19,19,0,0,1,8.48-3.86,18.43,18.43,0,0,1,3-.3h1.08c-.08,0-.46,0-1.08-.08a18.18,18.18,0,0,0-3,.11,19.3,19.3,0,0,0-9,3.45,19.51,19.51,0,0,0-6.78,8.89,19.14,19.14,0,0,0-1.13,4.83,29.63,29.63,0,0,0-.11,3.73c.07,2,.27,4.08.3,6.17a19.89,19.89,0,0,1-.4,4.44c-.11.49-.23,1-.37,1.42a11.07,11.07,0,0,1-1.83,3.48l0,0L16.34,97c-1.38-.93-2.68-1.81-3.89-2.59l-1.55-1a4.57,4.57,0,0,1-.57.41l0,0L14.71,97h0a10.77,10.77,0,0,1-1.08.55,16.6,16.6,0,0,1-7.78.89C4,98.3,2,98.05,0,97.76v1.42c2,.23,3.93.39,5.76.44a16,16,0,0,0,8.13-1.49,8.82,8.82,0,0,0,1.24-.84c1.79,1.29,3.73,2.71,5.79,4.22a33.92,33.92,0,0,0-5.47-.63,44,44,0,0,0-11,1.13c-1.51.34-3,.76-4.45,1.22v1.71c1.57-.53,3.17-1,4.81-1.43a46.93,46.93,0,0,1,10.63-1.44h.73a35.84,35.84,0,0,1,6.31.57l.25.17,8.35,6.35,7.59,6,0,0c-1.36,0-2.93,0-4.63.08-1.29.08-2.65.21-4.08.42a49.2,49.2,0,0,0-13.19,4,47.13,47.13,0,0,0-5.15,2.78,43.4,43.4,0,0,0-6.49,4.9A42.21,42.21,0,0,0,0,133v2.66A45.37,45.37,0,0,1,6.3,128.6Z"/><path class="cls-6" d="M3.63,191c1,.91,1.67,1.45,1.82,1.57L3.68,191A46,46,0,0,1,0,186.83v.36A45.81,45.81,0,0,0,3.63,191Z"/><path class="cls-9" d="M54.43,78.64a33.35,33.35,0,0,1,16.06-1.79l-8.55-1.77,5.92-.51L63.1,73.43l8.26.32c-.87-.28-1.54-1.13-2.45-1.21a34.45,34.45,0,0,0-25,7.84c2.91-1,5.57-1.93,8.48-2.95a32.48,32.48,0,0,0-12.75,8.15A100.23,100.23,0,0,1,54.43,78.64Z"/><path class="cls-9" d="M13.31,64.37a17.79,17.79,0,0,0-1.54,2.4c-.18.34-.34.68-.5,1a16.34,16.34,0,0,0-1.11,3.56c-.06.35-.12.7-.16,1.06s-.08.71-.11,1.07A29.58,29.58,0,0,1,20.16,61.83a27.16,27.16,0,0,0-5,9.59,30.2,30.2,0,0,1,10.21-11.2c-1.49,2.1-3,4.19-4.46,6.29l4.8-5.08-.47.69a42.77,42.77,0,0,1,16.23-2.65,17,17,0,0,0-10-2.11,53.1,53.1,0,0,0,6.07-1.12h0c-.61-.09-1.23-.17-1.85-.24h0c-.61-.06-1.22-.11-1.83-.14h0c-.59,0-1.19,0-1.79,0h-.2c-.56,0-1.13,0-1.69.06H30c-.57,0-1.14.1-1.7.17l-.31,0q-.81.12-1.59.27l-.1,0c-.54.11-1.07.25-1.61.4l-.23.06-.14,0c-.53.15-1.07.32-1.59.52-.18.06-.36.14-.53.21-.44.18-.87.37-1.3.58l-.19.09-.78.41q-.62.35-1.23.72l-.76.51c-.6.43-1.18.87-1.73,1.35l0,0-.86.8-.14.14c-.29.29-.58.59-.85.9a1.63,1.63,0,0,0-.17.2C13.84,63.69,13.57,64,13.31,64.37Z"/><path class="cls-4" d="M28.37,172.13q1,7.51,2,15l.15-13.3a72.21,72.21,0,0,0,4,22.08,75.55,75.55,0,0,1,3.12-37.6L32.5,170l2.55-12.18a57.17,57.17,0,0,0-5.42,12.79,40.29,40.29,0,0,1,1.76-11.74c-.92,1.56-2,2.48-2.65,4.16a31.63,31.63,0,0,0,.15,24C28.69,182.08,28.58,177,28.37,172.13Z"/><path class="cls-4" d="M16.7,178.38a114.44,114.44,0,0,1,2.76-23A32,32,0,0,0,16.7,178.38Z"/><path class="cls-4" d="M84.51,189.87a49,49,0,0,0,1.76,16.26C85.46,200.4,85.32,195.6,84.51,189.87Z"/><path class="cls-3" d="M101.8,151.37a5.3,5.3,0,0,0-2.38.21,2.11,2.11,0,0,0-.52.31,1.66,1.66,0,0,0-.69,1.57c.51,2.68,8.57,2,10.5,2.29.78.12,1.55.26,2.32.42a44.29,44.29,0,0,1,16.4,7l-9.58-6.65a35.4,35.4,0,0,1,16.2,10.33,65.24,65.24,0,0,0-14.35-15.71,23.48,23.48,0,0,1,8.86,5.06c-.2-.39-.42-.78-.64-1.16h0c-.58-.51-1.18-1-1.81-1.45-.13-.11-.27-.21-.41-.31l-.69-.48-.57-.37-.66-.41-.66-.38-.63-.35-.75-.38-.59-.28-.89-.38-.49-.21c-.47-.18-1-.36-1.42-.51s-.85-.27-1.27-.38l-.38-.1-.9-.23-.4-.08-.89-.19-.41-.07-.89-.16-.42-.06-.89-.14-.4-.05-.92-.11-.36,0-1-.1-.23,0-1.11-.1h0a48.36,48.36,0,0,1,7.9,4.61Z"/><path class="cls-7" d="M136.78,136.7a81.61,81.61,0,0,1,1.79,15.18,26.35,26.35,0,0,0-14.38-13.52l7,6.88a37.78,37.78,0,0,0-25.94-10.4l16.83,6.09a48.67,48.67,0,0,0-22.76-2.57h0l1.2.08,1.89.21.76.08a64,64,0,0,1,13.24,3.18,61.37,61.37,0,0,1,7.41,3.17c6.34,3.22,12.6,8.22,13.76,15.24.25-.48.49-.95.71-1.43.12-.26.23-.52.34-.78s.2-.43.29-.65.27-.72.4-1.08c0-.12.1-.24.14-.36.15-.42.28-.85.41-1.27a.84.84,0,0,1,.05-.17c.13-.47.26-.94.37-1.41v0a29.17,29.17,0,0,0,.68-4.45A39.87,39.87,0,0,0,136.78,136.7Z"/><path class="cls-9" d="M105.25,95.53c-1,.12-2.56-.52-3.61-.67-1.29-.2-2.59-.34-3.89-.45a56.25,56.25,0,0,0-7.57-.07c-1.71.1-13.6,1.08-13.08,3.23,2.64-.27,5.32-1.36,8-1.74a51.42,51.42,0,0,1,8.5-.52l-10,1.6a84.4,84.4,0,0,1,11.79.54,54.49,54.49,0,0,0-20.94,3.67A84.43,84.43,0,0,1,101.79,99l-7.28-2.23Z"/><path class="cls-7" d="M85,82.63a19.26,19.26,0,0,1,8.74.25,23.53,23.53,0,0,0-11.1-2.27,44.5,44.5,0,0,0-11.25,1.92,82.3,82.3,0,0,0-19.92,8.63l9.82-2.83a33.07,33.07,0,0,0-5.63,2.61,11.38,11.38,0,0,0-4.28,4.4,6.91,6.91,0,0,0-.21,6,5.12,5.12,0,0,0,4.23,2.84h0a4.87,4.87,0,0,1-.83-.23l-.25-.09-.29-.13-.3-.18a1.48,1.48,0,0,1-.21-.13,3.13,3.13,0,0,1-.44-.36.86.86,0,0,1-.13-.14c-.1-.11-.19-.22-.28-.34a.86.86,0,0,1-.1-.16,2.59,2.59,0,0,1-.28-.55C51.4,99.41,53.76,97,56,95.6c.82-.54,1.67-1.06,2.52-1.55.35-.2.71-.38,1.07-.57s1-.57,1.54-.83.93-.43,1.39-.64l.14-.07c.39-.18.77-.37,1.15-.53s.58-.23.87-.35L64.8,91l.8-.32c.31-.12.6-.25.91-.36h0c.69-.25,1.38-.48,2.08-.7l.69-.23c.78-.24,1.58-.45,2.37-.66l.47-.13.51-.11c.7-.17,1.4-.32,2.1-.46L75,88c.85-.17,1.7-.3,2.56-.42l.26,0H78a54.17,54.17,0,0,1,16.86.33,52.72,52.72,0,0,1,6.31,1.53l.2.06h0A24.61,24.61,0,0,0,85,82.63Z"/><path class="cls-3" d="M86.12,71.27l-.23-.14c-.59-.37-1.2-.73-1.82-1.08l-.56-.31c-.52-.27-1.05-.54-1.58-.79l-.69-.33c-.53-.24-1.07-.47-1.62-.68-.22-.09-.44-.19-.66-.27-.77-.29-1.54-.56-2.33-.8l-.36-.1a31.93,31.93,0,0,0-5-1.07c-.46,0-.93-.09-1.4-.12l-.59,0a20.79,20.79,0,0,0-4.6.33,17.27,17.27,0,0,0-2.54.67c-.51.18-1,.39-1.49.61l-.36.19c-.37.18-.73.36-1.09.56l-.32.19c-.37.22-.74.44-1.1.67l-.19.13c-.41.27-.81.54-1.22.83a23.94,23.94,0,0,1,2.56-1,28.24,28.24,0,0,1,9-1.22,40.58,40.58,0,0,1,17.94,5.2,71.84,71.84,0,0,1,8,5.1c-.58-.63-1.18-1.24-1.79-1.83h0A39.48,39.48,0,0,0,86.12,71.27Z"/><path class="cls-3" d="M3.89,108.93,18,106.61l-5,.07c.77-.41,2.2-1.35,3-1.77a32.18,32.18,0,0,0-16,3.14v.35a38.26,38.26,0,0,1,8.13-1.29Z"/><path class="cls-3" d="M24.82,141.76c1.35-2.11,2.81-4.3,3.06-6.8a5.66,5.66,0,0,0-2.29-5.23h0l.18.19a7.26,7.26,0,0,1,.78,6.65,27.27,27.27,0,0,1-3.34,6.1c-.36.56-.72,1.14-1.07,1.72l-.3.51-.75,1.3-.3.56c-.25.45-.49.9-.73,1.35-.08.17-.17.33-.25.5-.27.52-.53,1-.78,1.57l-.15.31a72,72,0,0,0-3.34,8.42A134.42,134.42,0,0,1,24.82,141.76Z"/></g></g></svg>