<svg xmlns="http://www.w3.org/2000/svg" viewBox="0 0 302.38 99.24"><defs><style>.cls-1{fill:#1d674b;}.cls-2{fill:#04392c;}.cls-3{fill:#358554;}.cls-4{fill:#a38d41;}</style></defs><title>Asset 4</title><g id="Layer_2" data-name="Layer 2"><g id="OBJECTS"><path class="cls-1" d="M254,63.24c-8.58-5.2-17.17-17-27.17-21.72,1.55,4.92,3.09,9.83,4.69,14.77-2.39-5.24-4.74-10.5-7.09-15.77a18.51,18.51,0,0,0-5.89-1.06c6,13.35,11.84,26.23,18,40L212.77,40.2A115.18,115.18,0,0,1,162.17,38a38.09,38.09,0,0,1-11.86-5.07,38.66,38.66,0,0,1-4.05-3.41c-6.79,4.95-13.58,9.86-20.4,15.09,6.49-5.37,13-10.62,19.52-15.91a52.85,52.85,0,0,0-4.3-3.78c-4.32,3.32-8.65,6.64-12.86,9.92,3.83-3.63,7.63-7.27,11.44-10.92-.36-.23-.71-.47-1.09-.68A18.73,18.73,0,0,0,135,21.73c-7.39,6.86-14.92,13.66-22.1,20.6L132.35,21.1c-6-1-12.64.47-18.66,2.24-10.66,3.12-21.25,6.78-32,2.33-2.75-1.15-5.48-2.49-8.25-3.61-2.78,2.13-5.65,4.15-8.61,6,2.3-2.26,4.61-4.47,6.9-6.67a25.78,25.78,0,0,0-7.34-1.64c-4.27-.24-8.48.95-12.75,1.1-11.82.43-22.34-7-31.85-14C28,19.4,40.32,29.79,52.93,37.9,75.37,52.33,98.46,67,124.56,72.56c16,3.39,32.74,3.23,48.26,8.35,10.22,3.37,19.58,8.93,29.61,12.81s23.73,6.27,33.11,1c13.87-7.81,35.21-18,49.22-20.22C284.76,74.49,270.75,73.38,254,63.24Z"/><path class="cls-2" d="M271.12,71.26a100.39,100.39,0,0,1-29-7.69q-.72,2.94-1.46,5.88c-.6-1.79-3.92-1.23-3.9.65-1.31-2-2.61-4-3.91-6q2.55,8.22,5.08,16.44L235.6,77.3l1,2.12c-1-1.58-1.91-3.15-2.86-4.72L221.76,58.47q3.6,9.59,7.19,19.17-3.22-6.21-6.47-12.4a4.4,4.4,0,0,1-5.84-2.83q.2,7.5.38,15l-9.39-23.28q1.71,12.69,3.44,25.38c-.95-2.41-1.91-4.82-2.86-7.22l-1.5,3.09-2.1-13L203,73.78q-.72-9.33-1.43-18.66-4.38,6.78-8.78,13.54L198,46.12c-3.32,6.69-6.95,12.86-10.27,19.54q.93-8.83,1.85-17.68a20.44,20.44,0,0,1-13.34,5.61,37,37,0,0,1-14.49-2.48,62.6,62.6,0,0,1-11.48-5.47c-1.88-1.14-4.22-2.42-6.14-1.32l2.7-12.76q.13-.66.24-1.32l-.81-.75c-6.79,4.95-13.58,9.86-20.4,15.09,6.49-5.37,13-10.62,19.52-15.91a52.85,52.85,0,0,0-4.3-3.78c-4.32,3.32-8.65,6.64-12.86,9.92,3.83-3.63,7.63-7.27,11.44-10.92-.36-.23-.71-.47-1.09-.68A18.73,18.73,0,0,0,135,21.73c-7.39,6.86-14.92,13.66-22.1,20.6L132.35,21.1c-.23,0-.46-.05-.7-.08-7.71,2-14,7.86-20.87,12.15a29.27,29.27,0,0,1-11.17,4.5,39.08,39.08,0,0,1-9.6-.22c-2.48-.26-5.11-.59-7-2.18a12.59,12.59,0,0,1-2.82-3.92l-2.4-4.44-10.6,4.24,7.59-8.54-1.3-.55c-2.78,2.13-5.65,4.15-8.61,6,2.3-2.26,4.61-4.47,6.9-6.67a25.78,25.78,0,0,0-7.34-1.64c-4.27-.24-8.48.95-12.75,1.1-11.82.43-22.34-7-31.85-14C28,19.4,40.32,29.79,52.93,37.9,75.37,52.33,98.46,67,124.56,72.56c16,3.39,32.74,3.23,48.26,8.35,10.22,3.37,19.58,8.93,29.61,12.81s23.73,6.27,33.11,1c13.87-7.81,35.21-18,49.22-20.22A61.7,61.7,0,0,1,271.12,71.26Z"/><path class="cls-1" d="M235,83.72c-7.93,1.11-16,1.87-23.8,3.74-3.62.87-8.85,1.55-11.88,3.83,2.78.61,6.56-.69,9.38-1.11l8.18-1.2c1.84-.28,6.72-.13,8.17-1.21l-8.33,5.29,10.65-4L222.77,92l7.28-2.8-11.14,8a82.5,82.5,0,0,0,20.4-11.78l-5.17,5.06,8.75-4.21q-2,1.33-4,2.66L262,81.67c1.17-.49,2.34-1,3.5-1.42C255.3,80.89,245.16,82.3,235,83.72Z"/><path class="cls-3" d="M191.59,87.05c5.61.24,5.73,1.36,11.35,1.25,32-.58,69.48-7.78,99.44-19.17-.21-.64-.14-1-.34-1.6A329,329,0,0,1,191.59,87.05Z"/><path class="cls-3" d="M209.46,90.21c-5.6-3.81-10.4-8.64-15.52-13.08l-10.2,2.18,8.06-4c-1-.81-2-1.6-3-2.36a119.65,119.65,0,0,0-20.21,6.08,71.44,71.44,0,0,1,16.07-8.89,147.27,147.27,0,0,0-15.24-8c-3.26-1.55-6.82-3.75-10.53-5.88a115.08,115.08,0,0,0-29.35,13.63,109,109,0,0,1,22.82-17.13c-4.2-2-8.46-3.49-12.53-3.43-5.42.07-10.24,2.48-15.61,2.31S113.87,50.92,109,48.8c-4.56-2-8.64-5.1-13.44-6.42-7.84-2.16-16.86.68-23.93-3.31A22.3,22.3,0,0,1,66,34.16l-5.22,4.22a41,41,0,0,0,4.41-5.16,51,51,0,0,0-5.54-6l-6.18,7,3.6-8.76c-.28-.16-.57-.32-.86-.45C51.34,22.75,45.53,23.83,40.47,22,31.3,18.8,27.2,7.31,18.14,3.76,14.5,2.34,10.48,2.38,6.6,1.87A17.65,17.65,0,0,1,0,0,448.42,448.42,0,0,0,100.79,71.13c12.86,6.67,26.36,12.81,40.77,14.24,10.5,1,21.21-.45,31.59,1.48,10.18,1.9,19.46,7,29.27,10.32s24.17,2.76,33.12-2.46C227.13,98.49,217.09,95.39,209.46,90.21Z"/><path class="cls-1" d="M188.24,87.2l14.48,0a67,67,0,0,0-28-2.35l7-1.8-9.11,1,9.7-2.8-24.46,2.4,9.76-3.2-19.24,1.56a37.58,37.58,0,0,0,13.37-3.59c-1.13.25-2.27.46-3.41.63C146.6,80.9,135.85,78,124.49,75.6l8-.69-16.58-2.86c2.32-.19,6.57-1.53,8.89-1.72-1.37-.21-4.59-.48-6-.69,1.22-.27,5.14-1.31,6.37-1.58-6.16-.65-15,0-20.83-2.13a126.3,126.3,0,0,0,25.87-2.61,90.44,90.44,0,0,0-15.43.4L131,60.1c-3.48.62-7.36.37-10.89.55-3.26.17-6.35-.2-9.59,0L88,61.63l23.89-7.53a89.62,89.62,0,0,1-34.62.06A108.81,108.81,0,0,1,46.79,31.3l5,6.49A100.37,100.37,0,0,1,23.46,17.06l1.68,3.86L18.58,12.5l4,6.26L6.5,6a448.54,448.54,0,0,0,94.29,65.17c12.86,6.67,26.36,12.81,40.77,14.24,10.5,1,21.21-.45,31.59,1.48,10.18,1.9,19.46,7,29.27,10.32a43.77,43.77,0,0,0,14.27,2.06C207.42,94.72,198.06,90.31,188.24,87.2Z"/><path class="cls-3" d="M152.34,52.78a109.57,109.57,0,0,0-14.42,9.71,62.71,62.71,0,0,0-10,6.33l12.22-11.26L132.35,60l12.7-6.5-14.93,3.77L144.92,51a83.33,83.33,0,0,0-13.77-.17,41.46,41.46,0,0,1,8.66-1.44C143.88,49.29,148.14,50.76,152.34,52.78ZM8.54,4.6l4.83,4.81-1-3.26L14.5,7.9q-.48-2.64-1-5.28c-2.29-.33-4.63-.45-6.92-.75A17.65,17.65,0,0,1,0,0C.68.64,1.37,1.26,2.06,1.89l9.53,7.29C10.57,7.65,9.55,6.13,8.54,4.6ZM161.88,62.51l-2.15,1.59,11.2,1.24-6.81,4.59a52.47,52.47,0,0,0,12.66-2.29c-1.17.89-1.79,2-3,2.93l6.27-1.21-3.47,1.58,4.89-.39-5.7,3.67q.76-.37,1.56-.69a70.35,70.35,0,0,1,7.27-3.37,147.27,147.27,0,0,0-15.24-8c-3.26-1.55-6.82-3.75-10.53-5.88-1.53.47-3,1-4.54,1.5l-15.69,9.66L161.09,59l-7.36,5.66Zm9.79,14.38,4.14-2.67A20.17,20.17,0,0,0,171.67,76.89Zm24,1.76-2.39,1,11.56,7.1C201.68,84.15,198.7,81.36,195.66,78.65ZM58.17,32.89l4.65-2.34c-.32.68-.65,1.36-1,2l2.15-.8c-.75-.89-1.51-1.75-2.29-2.57Zm61.19,18.45-3.24,1.82c2.47-.62,5-1.13,7.49-1.53C122.18,51.58,120.77,51.48,119.36,51.34ZM60.08,27.63,54,33.91l7.34-5.09C60.93,28.4,60.51,28,60.08,27.63Z"/><path class="cls-3" d="M211.07,50.32l4,7.77q-.85-2.88-1.72-5.76l3.82,6c-.19-1.2-.39-2.4-.58-3.6l4.89,7.93a94.14,94.14,0,0,0-9.45-17.43,26.74,26.74,0,0,1,6.28,8.37l-1.49-3.8,5.61,7.39c-.71-1.55-1.44-3.08-2.19-4.61l-7.5-12.37q-5.34.93-10.72,1.37a133.44,133.44,0,0,0,2.57,17.22q0-6.21,0-12.41.81,3.76,1.64,7.52c.23-2.63.3-5.93.54-8.56q4.47,10.88,9,21.74Q213.4,58.7,211.07,50.32Z"/><path class="cls-1" d="M130.16,28.74l-8.76,9.45,13.88-12.51L132.65,29l3.1-2.46c-.34.49-.68,1-1,1.48l3.57-2.79,1.37-1.32c-.36-.23-.71-.47-1.09-.68A18.73,18.73,0,0,0,135,21.73l-.85.79L117.73,39.14Z"/><path class="cls-1" d="M144.58,27.92c-.83-.78-1.67-1.54-2.55-2.26a281.28,281.28,0,0,0-22.19,19.8Z"/><path class="cls-3" d="M116,24.23l-7.3,5.86,11.45-6-3.6,3.38a71.71,71.71,0,0,1,12.75-6.62c-5.15-.19-10.55,1.05-15.56,2.52-4,1.16-7.93,2.4-11.88,3.26A64.88,64.88,0,0,0,111.18,25c-4.85,3.3-10.61,4.93-16.26,6.51A71.32,71.32,0,0,0,116,24.23Z"/><path class="cls-4" d="M31.34,15.31c-4.07-4.37-7.73-9.41-13.2-11.55A17.72,17.72,0,0,0,15.5,3a61.47,61.47,0,0,1,9,6.44C26.78,11.36,29,13.38,31.34,15.31Z"/><path class="cls-2" d="M121.72,80.62c.88.32,1.78.63,2.67.93l9.55-1.6Z"/><path class="cls-2" d="M100.79,71.13a182.74,182.74,0,0,0,19.88,9.11l4-1.21-5.08.37,3.28-1.63-2.67-.34,2.35-.77-16-4.13a34.73,34.73,0,0,0,10.26-2.4c-6.1,1.92-13.93.68-19.82-1.83l3.31-1-3.09.3L99,67l-4.1-1.11,2-.34L76.73,57.73Q88.52,64.75,100.79,71.13Z"/><path class="cls-2" d="M132.35,83.82a73.15,73.15,0,0,0,9.21,1.55c5.44.54,10.94.4,16.42.41Z"/><path class="cls-2" d="M175.19,87.28h2.25l-3.6-.27Z"/><path class="cls-3" d="M66.94,35.19a21,21,0,0,0,4.24,3.6c-3.62.46-7.23.93-10.83,1.51l5.78-3.73-2.75,1.32A21.53,21.53,0,0,1,66.94,35.19ZM111.6,49.77c-.87-.29-1.73-.59-2.59-1-4.56-2-8.64-5.1-13.44-6.42-7.1-2-15.18.18-21.9-2.38A80.38,80.38,0,0,1,60.6,42.3l18.53,1-4.21,1.6a16,16,0,0,0,5.61-.29l-5.06,1.65,17.21-2.72-19,5.65a70.15,70.15,0,0,0,26.68-4.42A22.44,22.44,0,0,1,92,47.84l8.82-.56L90.28,49.73,105,48.8a163.34,163.34,0,0,1-25.84,3.9A75.21,75.21,0,0,0,111.6,49.77Z"/><path class="cls-1" d="M152.37,65.15a20.44,20.44,0,0,1-8.22,4.46l8.53-2.15-3,1.56,13.56-1.68a72.24,72.24,0,0,1-16.42,6.38l13.53-2.47a43.41,43.41,0,0,1-23.16,4.36l7.09-2.18-6.11.4,10.22-3.89a75.8,75.8,0,0,1-17.57,3l3.88-1.4c-.71.23-1.91-.15-2.65-.1,3.34.09,7.21-1.23,10.38-2.21A62.94,62.94,0,0,0,152.37,65.15Z"/><path class="cls-3" d="M57.08,25.44c-.28-.16-.57-.32-.86-.45C51.34,22.75,45.53,23.83,40.47,22a17.07,17.07,0,0,1-4-2.11l-3.51.85,8.74,2.59-7.39.19L57,25.75C57,25.65,57,25.54,57.08,25.44Z"/><path class="cls-3" d="M36,19.58a29.23,29.23,0,0,1-3.05-2.65l-3.22.4Z"/><path class="cls-3" d="M151.19,40.65c.55-1.48,1.09-3,1.64-4.45.06,1.39.11,2.77.17,4.15l1.66-2.63,1,4.42c.65-1.86,1.29-3.73,1.94-5.59a31.84,31.84,0,0,1-6.19-2.92Z"/><path class="cls-3" d="M159.53,47.09l3-9-.35-.09c-1.4-.39-2.8-.81-4.18-1.29Q158.77,41.89,159.53,47.09Z"/><path class="cls-3" d="M184.54,41.75a26.66,26.66,0,0,1-4.36,6.37c5.4-1.36,11-2.82,15.4-6.18Q190,42.11,184.54,41.75Z"/><path class="cls-3" d="M171.36,40.1c.1.48.19,1,.28,1.45l1.51-1.14Z"/><path class="cls-3" d="M166.27,39c-.32,2.77-.63,5.54-1,8.31l3-7.84Z"/><path class="cls-3" d="M169.19,39.66,169,42c.32-.71.63-1.42,1-2.14Z"/></g></g></svg>